<svg xmlns="http://www.w3.org/2000/svg" viewBox="0 0 185.28 196.32"><defs><style>.cls-1{fill:#fff;}</style></defs><g id="Camada_2" data-name="Camada 2"><g id="OBJECTS"><path d="M0,42v-.72a4.7,4.7,0,0,1,1.1-.82Q7.22,38.21,13.37,36,53.69,21.65,94,7.31c7.25-2.57,14.6-4.88,21.9-7.31h.48c.31.39.79.74.91,1.19.67,2.33,2.4,3.64,4.37,4.69,6,3.14,12.45,4.69,19,5.87a2.24,2.24,0,0,1,2,1.44c.62,1.6,1.31,3.18,1.8,4.81,5.35,17.68,10.86,35.32,15.94,53.07C168,97.47,175.2,124,182.55,150.41c1,3.45,1.82,6.93,2.73,10.39V161a10.91,10.91,0,0,1-2.48,1.67c-10.35,3.41-20.68,6.84-31.08,10.07-13.33,4.14-26.68,8.23-40.1,12.1S85,193.48,71.28,196.32h-.72c-1.81-.24-3.63-.41-5.42-.74a40,40,0,0,1-13.34-4.79A6.85,6.85,0,0,1,48.55,187c-.59-1.78-1.33-3.51-1.95-5.28-6-17.32-12.05-34.6-17.87-52C20,103.61,11.47,77.46,2.88,51.34,1.86,48.24,1,45.11,0,42ZM97,162c.51-.2.89-.37,1.29-.5,4.77-1.59,9.5-3.32,14.32-4.72,11-3.22,22.14-6.23,33.18-9.43,4-1.15,7.86-2.6,11.79-3.91-.19.42-.59.63-.85,1a24.61,24.61,0,0,0-2.57,3.57c-.9,1.74-.2,3.27,1.61,4.13,1.45.68,2.72.19,3.61-1.54a20.3,20.3,0,0,0,1.2-3.12c.27-.89.42-1.83.68-3,.6.88,1.08,1.6,1.58,2.3a11.86,11.86,0,0,0,5.14,4.37c3.32,1.34,6.52-.72,6-3.91a5.59,5.59,0,0,0-1.18-2.42,8.15,8.15,0,0,0-4.59-2.66c-1.71-.43-3.46-.66-5.24-1a12.43,12.43,0,0,0,1.51-1.37,22.8,22.8,0,0,0,2.58-3.41A3.33,3.33,0,0,0,165.7,132c-1.3-.71-2.89-.22-3.88,1.39a19.82,19.82,0,0,0-1.26,3c-.13.33-.2.69-.39,1.32-11.25-30.27-21.73-60.5-33.52-90a38.11,38.11,0,0,0,3.83,1.67,2.6,2.6,0,0,0,3.06-1.1,2.84,2.84,0,0,0,0-3.17,4.81,4.81,0,0,0-3.63-2.29c-1.24-.22-2.5-.28-3.7-.41,1.11-1.3,2.33-2.55,3.36-4a9,9,0,0,0,2-5.88A3.66,3.66,0,0,0,127.88,29a5.58,5.58,0,0,0-5.16,4.73,59.89,59.89,0,0,0-.44,7A7.75,7.75,0,0,0,121,39.37a27.88,27.88,0,0,0-4.17-2.47c-1.19-.52-2.84.45-3.49,1.7a2.53,2.53,0,0,0,.82,3.31,13.2,13.2,0,0,0,3.33,1.51,19.28,19.28,0,0,0,3,.45l-1.19.43c-6.4,2.35-12.86,4.6-19.21,7.09-10.21,4-20.35,8.24-30.55,12.3-2.73,1.08-5.56,1.91-8.34,2.86A4.69,4.69,0,0,1,62,65.3a16.67,16.67,0,0,0,1.68-2.87c.6-1.52-.09-2.78-1.73-3.6a2.37,2.37,0,0,0-3.38,1,20.16,20.16,0,0,0-1.5,3.5c-.32.9-.48,1.86-.76,2.95-.67-1-1.18-1.86-1.79-2.64a17.62,17.62,0,0,0-2-2.24,6.86,6.86,0,0,0-5.24-2.21c-3.21.2-4.78,2.89-3.15,5.67a6.1,6.1,0,0,0,2.14,2.2,20,20,0,0,0,4.28,1.76,31.93,31.93,0,0,0,4.07.69,13.43,13.43,0,0,0-1.53,1.36,24.21,24.21,0,0,0-2.78,3.56,3.23,3.23,0,0,0,1.4,4.23c1.42.76,2.8.28,3.79-1.43a18,18,0,0,0,1.13-2.63c.27-.73.45-1.49.77-2.59l32.86,87c-1.75-.83-3.39-1.73-5.11-2.38a2.49,2.49,0,0,0-2.86,1,2.65,2.65,0,0,0-.2,2.94,4.66,4.66,0,0,0,3.8,2.58c1.26.2,2.54.27,3.84.4a.93.93,0,0,1-.08.22c-.15.13-.32.25-.46.38-2.47,2.29-4.37,4.92-4.6,8.41-.1,1.61.22,3.2,1.81,4a4,4,0,0,0,4.41-.55,5.51,5.51,0,0,0,1.44-1.73,12.19,12.19,0,0,0,1.2-7.44c0-.53-.1-1.05-.14-1.58l.38-.22a10.54,10.54,0,0,0,.85,1.14,8.08,8.08,0,0,0,4.21,2.61,3.39,3.39,0,0,0,3.86-2.12c.52-1.55-.1-2.84-1.9-3.6A34.75,34.75,0,0,0,97,162ZM9.62,41.25A48.21,48.21,0,0,1,27,48.75a2,2,0,0,0,1.6.22C42.34,44.25,56,39.39,69.79,34.74,89.49,28.09,109.24,21.57,129,15c2.3-.76,4.63-1.4,7.12-2.15-2.54-.71-4.91-1.28-7.22-2-4.58-1.51-9.23-3-12.53-6.95Zm38.58,3a2.64,2.64,0,0,0-.42,0q-9.16,3.18-18.32,6.36c-.74.25-.83.75-.66,1.39.11.39.24.76.37,1.14q9.46,28.32,18.94,56.65,13.78,41.22,27.6,82.43a11,11,0,0,0,.52,1.18l17.5-5.2-1.33-.75q-9.7-5-19.4-10a2.92,2.92,0,0,1-1.62-1.89c-2.37-7.45-4.7-14.92-7.24-22.32Q49.59,110.89,34.89,68.48a2.12,2.12,0,0,1,.17-2c1.81-3,3.55-6,5.32-9ZM8.41,64.52c.95,2.91,1.92,5.78,2.81,8.68a1.76,1.76,0,0,0,1.34,1.3A60.11,60.11,0,0,0,29.19,77c2.06,0,4.11,0,6.35,0-.92-2.72-1.79-5.2-2.59-7.7-.22-.69-.54-.87-1.25-.93-3-.24-6-.42-8.92-.94C18,66.63,13.27,65.53,8.41,64.52ZM19.28,97.6c1,3.14,2.06,6,2.95,8.89A1.82,1.82,0,0,0,23.9,108c4.51.5,9,1.15,13.54,1.51,2.92.23,5.87,0,9,0-1-3-1.87-5.62-2.81-8.23-.09-.25-.69-.47-1-.45a50.17,50.17,0,0,1-14.14-1.23C25.5,99,22.52,98.33,19.28,97.6Zm35.62,37c-8,1.13-15.71-.44-23.64-1.33.94,2.76,1.91,5.34,2.68,8a2.15,2.15,0,0,0,2.22,1.8c4.18.22,8.36.62,12.54.66,2.95,0,5.92-.42,9-.66C56.74,140.11,55.84,137.43,54.9,134.61ZM66.2,168.2c-8,1.1-15.65-.54-23.52-1.52,1.1,3.14,2.11,6.11,3.2,9.06a1.41,1.41,0,0,0,1,.63c2.37.32,4.74.64,7.13.82a76.29,76.29,0,0,0,15-.63ZM141,13.44l-17.72,5.25L146.48,31l.23-.19C144.82,25.09,142.93,19.39,141,13.44ZM165.3,166.38l.21.28c5.62-1.92,11.23-3.85,16.86-5.74.79-.26.79-.67.61-1.36-1.13-4.24-2.22-8.49-3.33-12.74-.07-.27-.2-.53-.37-1Z"/><path class="cls-1" d="M97,162a34.75,34.75,0,0,1,3.78,1.16c1.8.76,2.42,2.05,1.9,3.6a3.39,3.39,0,0,1-3.86,2.12,8.08,8.08,0,0,1-4.21-2.61,10.54,10.54,0,0,1-.85-1.14l-.38.22c0,.53.09,1.05.14,1.58a12.19,12.19,0,0,1-1.2,7.44,5.51,5.51,0,0,1-1.44,1.73,4,4,0,0,1-4.41.55c-1.59-.82-1.91-2.41-1.81-4,.23-3.49,2.13-6.12,4.6-8.41.14-.13.31-.25.46-.38a.93.93,0,0,0,.08-.22c-1.3-.13-2.58-.2-3.84-.4a4.66,4.66,0,0,1-3.8-2.58,2.65,2.65,0,0,1,.2-2.94,2.49,2.49,0,0,1,2.86-1c1.72.65,3.36,1.55,5.11,2.38l-32.86-87c-.32,1.1-.5,1.86-.77,2.59a18,18,0,0,1-1.13,2.63c-1,1.71-2.37,2.19-3.79,1.43a3.23,3.23,0,0,1-1.4-4.23,24.21,24.21,0,0,1,2.78-3.56,13.43,13.43,0,0,1,1.53-1.36,31.93,31.93,0,0,1-4.07-.69,20,20,0,0,1-4.28-1.76,6.1,6.1,0,0,1-2.14-2.2c-1.63-2.78-.06-5.47,3.15-5.67a6.86,6.86,0,0,1,5.24,2.21,17.62,17.62,0,0,1,2,2.24c.61.78,1.12,1.64,1.79,2.64.28-1.09.44-2,.76-2.95a20.16,20.16,0,0,1,1.5-3.5,2.37,2.37,0,0,1,3.38-1c1.64.82,2.33,2.08,1.73,3.6A16.67,16.67,0,0,1,62,65.3a4.69,4.69,0,0,0-.78,1.25c2.78-1,5.61-1.78,8.34-2.86,10.2-4.06,20.34-8.28,30.55-12.3,6.35-2.49,12.81-4.74,19.21-7.09l1.19-.43a19.28,19.28,0,0,1-3-.45,13.2,13.2,0,0,1-3.33-1.51,2.53,2.53,0,0,1-.82-3.31c.65-1.25,2.3-2.22,3.49-1.7A27.88,27.88,0,0,1,121,39.37a7.75,7.75,0,0,1,1.25,1.32,59.89,59.89,0,0,1,.44-7A5.58,5.58,0,0,1,127.88,29a3.66,3.66,0,0,1,3.68,3.51,9,9,0,0,1-2,5.88c-1,1.4-2.25,2.65-3.36,4,1.2.13,2.46.19,3.7.41A4.81,4.81,0,0,1,133.5,45a2.84,2.84,0,0,1,0,3.17,2.6,2.6,0,0,1-3.06,1.1,38.11,38.11,0,0,1-3.83-1.67c11.79,29.52,22.27,59.75,33.52,90,.19-.63.26-1,.39-1.32a19.82,19.82,0,0,1,1.26-3c1-1.61,2.58-2.1,3.88-1.39a3.33,3.33,0,0,1,1.34,4.37,22.8,22.8,0,0,1-2.58,3.41,12.43,12.43,0,0,1-1.51,1.37c1.78.32,3.53.55,5.24,1a8.15,8.15,0,0,1,4.59,2.66,5.59,5.59,0,0,1,1.18,2.42c.52,3.19-2.68,5.25-6,3.91a11.86,11.86,0,0,1-5.14-4.37c-.5-.7-1-1.42-1.58-2.3-.26,1.13-.41,2.07-.68,3a20.3,20.3,0,0,1-1.2,3.12c-.89,1.73-2.16,2.22-3.61,1.54-1.81-.86-2.51-2.39-1.61-4.13a24.61,24.61,0,0,1,2.57-3.57c.26-.33.66-.54.85-1-3.93,1.31-7.82,2.76-11.79,3.91-11,3.2-22.14,6.21-33.18,9.43-4.82,1.4-9.55,3.13-14.32,4.72C97.87,161.6,97.49,161.77,97,162ZM67.66,70c1.06,2.5.73,4.08-1,6a1.43,1.43,0,0,0-.18,1.22c1.26,3.91,2.59,7.8,3.88,11.71C77.51,110.76,85.82,132.2,94,153.67a1.17,1.17,0,0,0,1.37.93,6.2,6.2,0,0,1,4.13,1.34,1.86,1.86,0,0,0,1.45.26c2.31-.65,4.57-1.44,6.87-2.12,14.28-4.23,28.36-9.05,42.31-14.28.66-.25,1.17-.42,1.13-1.36a5,5,0,0,1,1.63-3.87,1.59,1.59,0,0,0,.41-2.07q-5.66-14.31-11.24-28.65-9.45-24.21-18.87-48.42c-.26-.66-.51-1-1.32-1-2.21-.07-4.06-.85-4.91-3.28Zm25.16,91.51c1.66-2.19,1.68-2.48.72-5C87.35,140,81,123.59,75,107c-4.12-11.38-7.79-22.91-11.67-34.37-.15-.45-.28-1.13-.6-1.25-1.42-.54-2.91-.91-4.49-1.38ZM123.74,45.13a6.8,6.8,0,0,0-.48,6.53c2.34,5.5,4.34,11.16,6.52,16.73q13.29,34,26.57,68.06a5.9,5.9,0,0,0,3,3.23C158.09,134.07,125.53,47.51,123.74,45.13ZM59.38,68.69a7.69,7.69,0,0,0,7,.37q13.89-5.58,27.9-10.86c8.62-3.27,17-7.14,26-9.29a1.07,1.07,0,0,0,.67-.55c.35-1,.62-2.1,1-3.31-.59.17-1,.28-1.49.44-6,2.15-12,4.18-17.88,6.51-10.29,4-20.48,8.36-30.76,12.42C67.77,66,63.6,67.25,59.38,68.69Zm99.28,72.87,0-.44a11.59,11.59,0,0,1-1.42-1.05c-.83-.85-1.64-.74-2.68-.36-9.52,3.45-19,7-28.63,10.22s-19.47,6.19-29.22,9.24A2.22,2.22,0,0,0,95,161.09l1.19-.4c3-1.08,6-2.31,9.14-3.21,11.23-3.28,22.5-6.38,33.71-9.68C145.63,145.86,152.13,143.65,158.66,141.56ZM55.63,68.2c-1.42-2.71-2.76-5-5-6.49a7.24,7.24,0,0,0-2.15-1,3.13,3.13,0,0,0-3.41,1.38,2.63,2.63,0,0,0,1.36,3.14,46.83,46.83,0,0,0,6,2.62A13.9,13.9,0,0,0,55.63,68.2ZM162.3,142.52,162,143a35.54,35.54,0,0,0,3,4.14,13.84,13.84,0,0,0,3.75,2.67,3.15,3.15,0,0,0,3.8-1.18,2.66,2.66,0,0,0-1.44-3.31,26.81,26.81,0,0,0-4.89-2.2A22.16,22.16,0,0,0,162.3,142.52ZM91.67,164.21c-3.07,2.25-5.12,4.94-5.66,8.57a2.33,2.33,0,0,0,1.47,2.53,2.2,2.2,0,0,0,2.71-.67,8.41,8.41,0,0,0,1.51-2.53C92.52,169.57,92.07,167,91.67,164.21ZM124.09,41.49c2.69-1.11,5.94-5.74,5.94-8.35a2.55,2.55,0,0,0-1.5-2.53,2.17,2.17,0,0,0-2.7.67,7,7,0,0,0-1.66,3.07A67.75,67.75,0,0,0,124.09,41.49Zm37.43,99c1.11-1,2-1.77,2.78-2.64a9.54,9.54,0,0,0,1.53-2.39c.42-.92-.1-1.62-.9-2.1s-1.28.18-1.66.7A10.54,10.54,0,0,0,161.52,140.48ZM56,70.4a23.41,23.41,0,0,0-2.34,2,14,14,0,0,0-2,2.79c-.49.93.06,1.71.91,2.18s1.27-.21,1.66-.75A10.25,10.25,0,0,0,56,70.4Zm65.6-28.09.23-.36c-1.44-1.14-2.84-2.34-4.35-3.39a1.81,1.81,0,0,0-2.4.37c-.64.63-.68,1.29.09,1.81A10.16,10.16,0,0,0,121.59,42.31ZM90.18,162.22l.13-.48a13.37,13.37,0,0,0-5.23-3.62,1.59,1.59,0,0,0-1.47.49,2.33,2.33,0,0,0-.09,1.73,1.65,1.65,0,0,0,1.12.79C86.47,161.55,88.33,161.87,90.18,162.22Zm4.14,1.26-.22.36A49.29,49.29,0,0,0,98,166.91a3.16,3.16,0,0,0,2.14.19,1.91,1.91,0,0,0,1.25-1.06c.09-.31-.49-1-.91-1.24A9.78,9.78,0,0,0,94.32,163.48ZM125.7,43.66l-.14.48a14.59,14.59,0,0,0,5,3.72c.64.26,1.37.3,1.63-.45a3.51,3.51,0,0,0,0-1.85c-.06-.28-.57-.59-.92-.67C129.45,44.44,127.57,44.06,125.7,43.66ZM57.65,66.53l.57.27c1.27-1.45,2.58-2.87,3.75-4.4.29-.38.32-1.51.1-1.64a2.73,2.73,0,0,0-2-.23,2.3,2.3,0,0,0-1.24,1.33C58.37,63.38,58,65,57.65,66.53ZM160,144.27l-.54-.29c-1.27,1.51-2.58,3-3.77,4.55a1.57,1.57,0,0,0-.11,1.49,1.76,1.76,0,0,0,1.57.45,3.45,3.45,0,0,0,1.72-1.6A39.58,39.58,0,0,0,160,144.27ZM122.2,52.87c-.19-.49-.35-1-.53-1.43L121,49.85l-2.49.85C119,52.31,120.28,53.05,122.2,52.87ZM65.61,74.74c1.23-1,1.7-2.77.84-3.6-.35-.33-1.23-.11-2.09-.15Zm88.76,60.63-.41-.08c-.48,1.08-1,2.17-1.43,3.25l.34.23,2.48-.91ZM94.86,155.8l.82,2.19,2.59-.9,0-.38Z"/><path class="cls-1" d="M9.62,41.25,116.34,3.87c3.3,4,8,5.44,12.53,7,2.31.76,4.68,1.33,7.22,2-2.49.75-4.82,1.39-7.12,2.15-19.73,6.56-39.48,13.08-59.18,19.73C56,39.39,42.34,44.25,28.6,49a2,2,0,0,1-1.6-.22A48.21,48.21,0,0,0,9.62,41.25Zm15.73,4.43,0,.32c1.93-.49,3.89-.86,5.76-1.49C44.54,40,58,35.63,71.26,30.81c16.89-6.12,33.63-12.63,50.43-19a1.6,1.6,0,0,0,.55-.23.58.58,0,0,0,.18-.49.56.56,0,0,0-.45-.26,4.34,4.34,0,0,0-.91.28c-6,2.09-12.11,4.09-18.1,6.29Q68.72,29.95,34.51,42.57C31.48,43.67,28.4,44.64,25.35,45.68ZM128.67,12.35l-.13-.3c-.37.1-.75.19-1.11.32-4.72,1.6-9.5,3.07-14.16,4.84-17.93,6.85-36,13.26-54.36,18.92-8.54,2.64-17.13,5.11-25.32,8.75-1.56.69-3.08,1.45-4.62,2.18,3.23-1,6.36-2.13,9.54-3.13,7.39-2.32,14.87-4.35,22.19-6.84,13.22-4.51,26.32-9.34,39.52-13.9,8.83-3,17.79-5.71,26.25-9.73C127.21,13.11,127.94,12.72,128.67,12.35ZM15.06,41.17c34.15-9.6,67.2-22.49,100.75-33.87C82.11,18.24,48.33,29,15.06,41.17Zm8.66.61.1.32a72.7,72.7,0,0,0,7.56-1.71c11.12-3.75,22.26-7.45,33.26-11.51,14.9-5.51,29.67-11.34,44.51-17,3.23-1.23,6.51-2.37,9.76-3.55a1.77,1.77,0,0,0-1,.07c-3.48,1.15-7,2.23-10.45,3.48-17.32,6.3-34.63,12.67-51.94,19q-13,4.74-26,9.37C27.59,40.88,25.63,41.27,23.72,41.78Z"/><path class="cls-1" d="M48.2,44.3,40.38,57.52c-1.77,3-3.51,6-5.32,9a2.12,2.12,0,0,0-.17,2q14.65,42.43,29.25,84.88c2.54,7.4,4.87,14.87,7.24,22.32A2.92,2.92,0,0,0,73,177.57q9.7,5,19.4,10l1.33.75-17.5,5.2a11,11,0,0,1-.52-1.18q-13.81-41.21-27.6-82.43Q38.63,81.54,29.17,53.21c-.13-.38-.26-.75-.37-1.14-.17-.64-.08-1.14.66-1.39q9.16-3.16,18.32-6.36A2.64,2.64,0,0,1,48.2,44.3Z"/><path class="cls-1" d="M8.41,64.52c4.86,1,9.6,2.11,14.37,3,2.94.52,5.94.7,8.92.94.71.06,1,.24,1.25.93.8,2.5,1.67,5,2.59,7.7-2.24,0-4.29,0-6.35,0A60.11,60.11,0,0,1,12.56,74.5a1.76,1.76,0,0,1-1.34-1.3C10.33,70.3,9.36,67.43,8.41,64.52Z"/><path class="cls-1" d="M19.28,97.6c3.24.73,6.22,1.41,9.21,2.05a50.17,50.17,0,0,0,14.14,1.23c.34,0,.94.2,1,.45.94,2.61,1.81,5.25,2.81,8.23-3.16,0-6.11.19-9,0-4.52-.36-9-1-13.54-1.51a1.82,1.82,0,0,1-1.67-1.52C21.34,103.6,20.33,100.74,19.28,97.6Z"/><path class="cls-1" d="M54.9,134.61c.94,2.82,1.84,5.5,2.83,8.44-3.11.24-6.08.69-9,.66-4.18,0-8.36-.44-12.54-.66a2.15,2.15,0,0,1-2.22-1.8c-.77-2.63-1.74-5.21-2.68-8C39.19,134.17,46.93,135.74,54.9,134.61Z"/><path class="cls-1" d="M66.2,168.2,69,176.56a76.29,76.29,0,0,1-15,.63c-2.39-.18-4.76-.5-7.13-.82a1.41,1.41,0,0,1-1-.63c-1.09-3-2.1-5.92-3.2-9.06C50.55,167.66,58.24,169.3,66.2,168.2Z"/><path class="cls-1" d="M141,13.44c2,6,3.87,11.65,5.76,17.35l-.23.19L123.23,18.69Z"/><path class="cls-1" d="M165.3,166.38l14-20.53c.17.44.3.7.37,1,1.11,4.25,2.2,8.5,3.33,12.74.18.69.18,1.1-.61,1.36-5.63,1.89-11.24,3.82-16.86,5.74Z"/><path d="M67.66,70,117,51.13c.85,2.43,2.7,3.21,4.91,3.28.81,0,1.06.36,1.32,1q9.4,24.21,18.87,48.42,5.6,14.34,11.24,28.65a1.59,1.59,0,0,1-.41,2.07,5,5,0,0,0-1.63,3.87c0,.94-.47,1.11-1.13,1.36-13.95,5.23-28,10-42.31,14.28-2.3.68-4.56,1.47-6.87,2.12a1.86,1.86,0,0,1-1.45-.26,6.2,6.2,0,0,0-4.13-1.34,1.17,1.17,0,0,1-1.37-.93c-8.19-21.47-16.5-42.91-23.67-64.76-1.29-3.91-2.62-7.8-3.88-11.71A1.43,1.43,0,0,1,66.64,76C68.39,74.11,68.72,72.53,67.66,70Zm63.43,39.72a31.57,31.57,0,0,0-2.46-12.14c-4-9.79-11-16.11-21.57-18a1.63,1.63,0,0,0-1.69.54A36,36,0,0,0,99,89.35,26.36,26.36,0,0,0,103.28,119c5.24,5.65,12,8.32,19.47,9.38.88.12,1.32-.39,1.79-.94A27.07,27.07,0,0,0,131.09,109.75ZM93.85,87.19c-.54-.21-1.1-.4-1.65-.63-2-.82-4-1.68-6.11-2.43-.35-.13-.87.24-1.31.38a9.59,9.59,0,0,0,.55,1.41c.12.19.5.22.76.32L93,89.07,91.33,100H90.11l-7.19.08c-.73,0-1.14.33-1.11,1.08s.52.89,1.17.89c2.28,0,4.56,0,6.83,0h1.61l1.41,9.06-3.26,1-4.79,1.54c-.7.23-1,.81-.68,1.39.19.33.87.46,1.34.5a3.39,3.39,0,0,0,1.13-.34L93.45,113l4.61,8.06-5.79,4.71c-.7.55-1.63,1.12-.78,2.09s1.44-.06,2-.51c2-1.57,4-3.2,5.79-4.69l8.35,7.22c-1.23,2.26-2.56,4.64-3.82,7a1.78,1.78,0,0,0-.08,1.3,1.08,1.08,0,0,0,1,.43,1.87,1.87,0,0,0,.91-.85c1.3-2.32,2.57-4.67,3.75-6.82l9.89,3.54c0,2.66,0,5.45,0,8.23,0,.6,0,1.17.77,1.23s1.17-.35,1.21-1.13c.15-3.07.32-6.14.47-9.22a1,1,0,0,0-1-1.21,28.12,28.12,0,0,1-15-6.83C96.08,117.5,92,107.26,94,94.77A29.17,29.17,0,0,1,101.43,79a1.15,1.15,0,0,0-.06-1.93c-.73-.66-1.37-1.45-2-2.19-1.37-1.5-2.7-3-4.14-4.5-.27-.26-1-.12-1.44-.16a3.71,3.71,0,0,0,0,1.49c.21.48.74.82,1.11,1.24,1.53,1.71,3.05,3.44,4.49,5.06-1.1,1.59-2.18,3-3.08,4.49S94.68,85.55,93.85,87.19Zm38.25,6.4,0-.53c-.48-.36-.93-1-1.46-1a1,1,0,0,0-1.24,1.23c.1.48.71,1.17,1.13,1.2S131.58,93.9,132.1,93.59Zm3.43,9.45v-.55c-.51-.32-1-.84-1.53-.92a1,1,0,0,0-1.16,1.29A1.77,1.77,0,0,0,134,104C134.53,104,135,103.38,135.53,103Zm-3.15-3.67H133c.35-.48.91-.91,1-1.44.14-.82-.42-1.33-1.29-1.32s-1.35.49-1.21,1.27C131.55,98.42,132.05,98.88,132.38,99.37Zm-4.23-11.76-.53,0c-.3.44-.78.85-.85,1.32a1,1,0,0,0,1.16,1.16A1.64,1.64,0,0,0,129,89C129.05,88.55,128.47,88.07,128.15,87.61ZM136,108.08l0-.56c-.47-.3-1-.85-1.41-.81a1.61,1.61,0,0,0-1.08,1.1.94.94,0,0,0,1.13,1.14A4.42,4.42,0,0,0,136,108.08Zm-1.42,6.35c.45-.78.92-1.22.88-1.63a1.29,1.29,0,0,0-1-.84,1.32,1.32,0,0,0-.93.94C133.57,113.3,134.08,113.7,134.61,114.43Zm-8.56-29.25c-.67-.5-1.07-1-1.38-1a1.52,1.52,0,0,0-1,.94c-.06.25.53.93.86,1S125.33,85.63,126.05,85.18Zm6.58,32.8c.53.34.85.7,1.18.7s.68-.56.63-.76a1.22,1.22,0,0,0-.81-.74C133.41,117.14,133.1,117.58,132.63,118ZM120.75,80.71c-.35.5-.75.85-.69,1.06s.52.52.8.78c.22-.27.61-.54.63-.82S121.11,81.18,120.75,80.71Z"/><path d="M92.82,161.54,58.27,70c1.58.47,3.07.84,4.49,1.38.32.12.45.8.6,1.25C67.24,84.13,70.91,95.66,75,107c6,16.55,12.32,33,18.51,49.47C94.5,159.06,94.48,159.35,92.82,161.54Z"/><path d="M123.74,45.13c1.79,2.38,34.35,88.94,35.57,94.55a5.9,5.9,0,0,1-3-3.23q-13.23-34-26.57-68.06c-2.18-5.57-4.18-11.23-6.52-16.73A6.8,6.8,0,0,1,123.74,45.13Z"/><path d="M59.38,68.69c4.22-1.44,8.39-2.67,12.43-4.27C82.09,60.36,92.28,56.05,102.57,52c5.9-2.33,11.91-4.36,17.88-6.51.44-.16.9-.27,1.49-.44-.34,1.21-.61,2.27-1,3.31a1.07,1.07,0,0,1-.67.55c-9,2.15-17.41,6-26,9.29q-14,5.29-27.9,10.86A7.69,7.69,0,0,1,59.38,68.69Z"/><path d="M158.66,141.56c-6.53,2.09-13,4.3-19.61,6.24-11.21,3.3-22.48,6.4-33.71,9.68-3.09.9-6.09,2.13-9.14,3.21l-1.19.4a2.22,2.22,0,0,1,1.67-1.92c9.75-3,19.54-6,29.22-9.24s19.11-6.77,28.63-10.22c1-.38,1.85-.49,2.68.36a11.59,11.59,0,0,0,1.42,1.05Z"/><path d="M55.63,68.2a13.9,13.9,0,0,1-3.23-.34,46.83,46.83,0,0,1-6-2.62,2.63,2.63,0,0,1-1.36-3.14,3.13,3.13,0,0,1,3.41-1.38,7.24,7.24,0,0,1,2.15,1C52.87,63.23,54.21,65.49,55.63,68.2Z"/><path d="M162.3,142.52a22.16,22.16,0,0,1,3.94.6,26.81,26.81,0,0,1,4.89,2.2,2.66,2.66,0,0,1,1.44,3.31,3.15,3.15,0,0,1-3.8,1.18,13.84,13.84,0,0,1-3.75-2.67,35.54,35.54,0,0,1-3-4.14Z"/><path d="M91.67,164.21c.4,2.79.85,5.36,0,7.9a8.41,8.41,0,0,1-1.51,2.53,2.2,2.2,0,0,1-2.71.67A2.33,2.33,0,0,1,86,172.78C86.55,169.15,88.6,166.46,91.67,164.21Z"/><path d="M124.09,41.49a67.75,67.75,0,0,1,.08-7.14,7,7,0,0,1,1.66-3.07,2.17,2.17,0,0,1,2.7-.67,2.55,2.55,0,0,1,1.5,2.53C130,35.75,126.78,40.38,124.09,41.49Z"/><path d="M161.52,140.48a10.54,10.54,0,0,1,1.75-6.43c.38-.52.81-1.2,1.66-.7s1.32,1.18.9,2.1a9.54,9.54,0,0,1-1.53,2.39C163.55,138.71,162.63,139.44,161.52,140.48Z"/><path d="M56,70.4a10.25,10.25,0,0,1-1.78,6.25c-.39.54-.83,1.2-1.66.75s-1.4-1.25-.91-2.18a14,14,0,0,1,2-2.79A23.41,23.41,0,0,1,56,70.4Z"/><path d="M121.59,42.31a10.16,10.16,0,0,1-6.43-1.57c-.77-.52-.73-1.18-.09-1.81a1.81,1.81,0,0,1,2.4-.37c1.51,1,2.91,2.25,4.35,3.39Z"/><path d="M90.18,162.22c-1.85-.35-3.71-.67-5.54-1.09a1.65,1.65,0,0,1-1.12-.79,2.33,2.33,0,0,1,.09-1.73,1.59,1.59,0,0,1,1.47-.49,13.37,13.37,0,0,1,5.23,3.62Z"/><path d="M94.32,163.48a9.78,9.78,0,0,1,6.14,1.32c.42.28,1,.93.91,1.24a1.91,1.91,0,0,1-1.25,1.06,3.16,3.16,0,0,1-2.14-.19,49.29,49.29,0,0,1-3.88-3.07Z"/><path d="M125.7,43.66c1.87.4,3.75.78,5.61,1.23.35.08.86.39.92.67a3.51,3.51,0,0,1,0,1.85c-.26.75-1,.71-1.63.45a14.59,14.59,0,0,1-5-3.72Z"/><path d="M57.65,66.53c.39-1.56.72-3.15,1.22-4.67a2.3,2.3,0,0,1,1.24-1.33,2.73,2.73,0,0,1,2,.23c.22.13.19,1.26-.1,1.64-1.17,1.53-2.48,2.95-3.75,4.4Z"/><path d="M160,144.27a39.58,39.58,0,0,1-1.13,4.6,3.45,3.45,0,0,1-1.72,1.6,1.76,1.76,0,0,1-1.57-.45,1.57,1.57,0,0,1,.11-1.49c1.19-1.57,2.5-3,3.77-4.55Z"/><path d="M122.2,52.87c-1.92.18-3.18-.56-3.65-2.17l2.49-.85.63,1.59C121.85,51.91,122,52.38,122.2,52.87Z"/><path d="M65.61,74.74,64.36,71c.86,0,1.74-.18,2.09.15C67.31,72,66.84,73.74,65.61,74.74Z"/><path d="M154.37,135.37l1,2.49-2.48.91-.34-.23c.48-1.08.95-2.17,1.43-3.25Z"/><path d="M94.86,155.8l3.45.91,0,.38-2.59.9Z"/><path d="M25.35,45.68c3-1,6.13-2,9.16-3.11Q68.74,30,103,17.42c6-2.2,12.06-4.2,18.1-6.29a4.34,4.34,0,0,1,.91-.28.56.56,0,0,1,.45.26.58.58,0,0,1-.18.49,1.6,1.6,0,0,1-.55.23c-16.8,6.35-33.54,12.86-50.43,19C58,35.63,44.54,40,31.15,44.51c-1.87.63-3.83,1-5.76,1.49Z"/><path d="M128.67,12.35c-.73.37-1.46.76-2.2,1.11-8.46,4-17.42,6.69-26.25,9.73C87,27.75,73.92,32.58,60.7,37.09c-7.32,2.49-14.8,4.52-22.19,6.84-3.18,1-6.31,2.18-9.54,3.13,1.54-.73,3.06-1.49,4.62-2.18,8.19-3.64,16.78-6.11,25.32-8.75,18.34-5.66,36.43-12.07,54.36-18.92,4.66-1.77,9.44-3.24,14.16-4.84.36-.13.74-.22,1.11-.32Z"/><path d="M15.06,41.17C48.33,29,82.11,18.24,115.81,7.3,82.26,18.68,49.21,31.57,15.06,41.17Z"/><path d="M23.72,41.78c1.91-.51,3.87-.9,5.73-1.56q13-4.62,26-9.37c17.31-6.31,34.62-12.68,51.94-19,3.45-1.25,7-2.33,10.45-3.48a1.77,1.77,0,0,1,1-.07c-3.25,1.18-6.53,2.32-9.76,3.55-14.84,5.67-29.61,11.5-44.51,17-11,4.06-22.14,7.76-33.26,11.51a72.7,72.7,0,0,1-7.56,1.71Z"/><path class="cls-1" d="M131.09,109.75a27.07,27.07,0,0,1-6.55,17.72c-.47.55-.91,1.06-1.79.94-7.49-1.06-14.23-3.73-19.47-9.38A26.36,26.36,0,0,1,99,89.35a36,36,0,0,1,6.35-9.25,1.63,1.63,0,0,1,1.69-.54c10.61,1.94,17.55,8.26,21.57,18A31.57,31.57,0,0,1,131.09,109.75Zm-1.69-5.4A15.66,15.66,0,0,0,113.64,88.6a16,16,0,0,0-16.16,15.86,15.76,15.76,0,0,0,15.86,15.81A15.94,15.94,0,0,0,129.4,104.35Z"/><path class="cls-1" d="M93.85,87.19c.83-1.64,1.55-3.25,2.44-4.74s2-2.9,3.08-4.49c-1.44-1.62-3-3.35-4.49-5.06-.37-.42-.9-.76-1.11-1.24a3.71,3.71,0,0,1,0-1.49c.49,0,1.17-.1,1.44.16,1.44,1.45,2.77,3,4.14,4.5.67.74,1.31,1.53,2,2.19a1.15,1.15,0,0,1,.06,1.93A29.17,29.17,0,0,0,94,94.77c-2,12.49,2,22.73,11.62,30.83a28.12,28.12,0,0,0,15,6.83,1,1,0,0,1,1,1.21c-.15,3.08-.32,6.15-.47,9.22,0,.78-.41,1.19-1.21,1.13s-.78-.63-.77-1.23c0-2.78,0-5.57,0-8.23L109.37,131c-1.18,2.15-2.45,4.5-3.75,6.82a1.87,1.87,0,0,1-.91.85,1.08,1.08,0,0,1-1-.43,1.78,1.78,0,0,1,.08-1.3c1.26-2.4,2.59-4.78,3.82-7l-8.35-7.22c-1.83,1.49-3.79,3.12-5.79,4.69-.57.45-1.22,1.42-2,.51s.08-1.54.78-2.09l5.79-4.71L93.45,113l-6.88,2.17a3.39,3.39,0,0,1-1.13.34c-.47,0-1.15-.17-1.34-.5-.33-.58,0-1.16.68-1.39l4.79-1.54,3.26-1L91.42,102H89.81c-2.27,0-4.55,0-6.83,0-.65,0-1.13-.16-1.17-.89s.38-1.08,1.11-1.08l7.19-.08h1.22L93,89.07l-6.94-2.83c-.26-.1-.64-.13-.76-.32a9.59,9.59,0,0,1-.55-1.41c.44-.14,1-.51,1.31-.38,2.06.75,4.08,1.61,6.11,2.43C92.75,86.79,93.31,87,93.85,87.19Z"/><path class="cls-1" d="M132.1,93.59c-.52.31-1.06.9-1.55.86s-1-.72-1.13-1.2A1,1,0,0,1,130.66,92c.53.09,1,.68,1.46,1Z"/><path class="cls-1" d="M135.53,103c-.5.34-1,1-1.49.95a1.77,1.77,0,0,1-1.21-1.13,1,1,0,0,1,1.16-1.29c.54.08,1,.6,1.53.92Z"/><path class="cls-1" d="M132.38,99.37c-.33-.49-.83-1-.92-1.48-.14-.78.4-1.26,1.21-1.27s1.43.5,1.29,1.32c-.1.53-.66,1-1,1.44Z"/><path class="cls-1" d="M128.15,87.61c.32.46.9.94.87,1.38a1.64,1.64,0,0,1-1.09,1.13A1,1,0,0,1,126.77,89c.07-.47.55-.88.85-1.32Z"/><path class="cls-1" d="M136,108.08a4.42,4.42,0,0,1-1.38.87.94.94,0,0,1-1.13-1.14,1.61,1.61,0,0,1,1.08-1.1c.45,0,.94.51,1.41.81Z"/><path class="cls-1" d="M134.61,114.43c-.53-.73-1-1.13-1.05-1.53a1.32,1.32,0,0,1,.93-.94,1.29,1.29,0,0,1,1,.84C135.53,113.21,135.06,113.65,134.61,114.43Z"/><path class="cls-1" d="M126.05,85.18c-.72.45-1.14.93-1.54.91s-.92-.7-.86-1a1.52,1.52,0,0,1,1-.94C125,84.15,125.38,84.68,126.05,85.18Z"/><path class="cls-1" d="M132.63,118c.47-.4.78-.84,1-.8a1.22,1.22,0,0,1,.81.74c.05.2-.4.76-.63.76S133.16,118.32,132.63,118Z"/><path class="cls-1" d="M120.75,80.71c.36.47.75.76.74,1s-.41.55-.63.82c-.28-.26-.71-.47-.8-.78S120.4,81.21,120.75,80.71Z"/><path d="M129.4,104.35a15.94,15.94,0,0,1-16.06,15.92,15.76,15.76,0,0,1-15.86-15.81A16,16,0,0,1,113.64,88.6,15.66,15.66,0,0,1,129.4,104.35Zm-16.24,8.25a8.51,8.51,0,0,0,8.8-8.37,8,8,0,0,0-8.13-8,8.68,8.68,0,0,0-8.9,8.46A8,8,0,0,0,113.16,112.6Z"/><path class="cls-1" d="M113.16,112.6a8,8,0,0,1-8.23-7.9,8.68,8.68,0,0,1,8.9-8.46,8,8,0,0,1,8.13,8A8.51,8.51,0,0,1,113.16,112.6Z"/></g></g></svg>