<svg xmlns="http://www.w3.org/2000/svg" viewBox="0 0 455.34 137.1"><defs><style>.cls-1,.cls-10,.cls-9{fill:#606c5d;}.cls-2{fill:#f7e6c4;}.cls-3{fill:#fff;}.cls-4{fill:#e2e4df;}.cls-5{fill:#e1d7c8;}.cls-6{fill:#d6c1a8;}.cls-7{fill:#615349;}.cls-8{fill:#65564c;}.cls-10,.cls-9{font-size:67px;}.cls-9{font-family:JosefinSlab-Medium, Josefin Slab;font-weight:500;}.cls-10{font-family:JosefinSlab-Bold, Josefin Slab;font-weight:700;letter-spacing:0.52em;}</style></defs><g id="Camada_2" data-name="Camada 2"><g id="Camada_1-2" data-name="Camada 1"><path class="cls-1" d="M5.06,107,6,105.29a.59.59,0,0,0,.56-.49,17.08,17.08,0,0,1,1.19-2.43,1.18,1.18,0,0,0,.15-.83h0c.46,0,.71-.15.34-.62l.07-.14A1.6,1.6,0,0,0,9.12,99a.11.11,0,0,1,.06-.13,2.85,2.85,0,0,0,1.24-2.44,11.6,11.6,0,0,1,1.13-2.15c.12.36.59.52.47,1a10.88,10.88,0,0,1-.52,2.82.42.42,0,0,0,0,.38,7,7,0,0,1,1.21,1.33c-.13.29-.24.6-.39.88-2.24,4.06-4.12,8.31-6.17,12.47-.27.54-.27.73.43.67,2.14-.19,4.22-.73,6.35-1,.46,0,.37-.27.21-.54a4.34,4.34,0,0,1-.58-1.66c-.1-.88-.23-1.66-1.53-1.3a5.87,5.87,0,0,0,.55-2c.34-1.5.67-3,1-4.51a2.16,2.16,0,0,0,.34-2.16l.07-.28c.39,0,.28-.4.42-.6s.4-.53.6-.17c.48.91,1.47.83,2.19,1.25a39.3,39.3,0,0,1-1.43,5.85c-.1.26-.4.67.12.78a3.11,3.11,0,0,0,1.91,0c.47-.21.15-.83.26-1.25,0-.15,0-.32.07-.48a59.87,59.87,0,0,1,4.43-14,34.87,34.87,0,0,1,5.67-9.19,11.65,11.65,0,0,1,4.43-3.27l.2-.14.15,0A2.25,2.25,0,0,0,33.6,80c.32.08.65.09.73.49A18,18,0,0,0,31,82.31a20.23,20.23,0,0,0-4.91,6,2.44,2.44,0,0,0,.05,3.12c.49.63.83,1.37,1.27,2,.15.23.24.55.49.58,3.39-7,8.17-12,16.46-12.54l-.7-.38a2.89,2.89,0,0,1,3,0,9.73,9.73,0,0,0,2.88.9,1.13,1.13,0,0,0,1.32-.53.46.46,0,0,1,.63-.21,1.41,1.41,0,0,0,1.23-.14,2.37,2.37,0,0,1,1.84-.29c.11,0,.32,0,.37-.06.55-.7.94-.39,1.32.17.05.07.2.07.3.1l0,2.71-.11,0a1.25,1.25,0,0,0-1.92.32c-.36.57-.73.62-1.19.14a1.37,1.37,0,0,1,.2-.13c.24-.1.62-.18.57-.47s-.44-.2-.69-.21a56.17,56.17,0,0,0-10.77.18,13.94,13.94,0,0,0-9.92,5.65,13,13,0,0,0-2.33,4c-.14.23-.3.44-.42.68A48.17,48.17,0,0,0,27,102.1c-.14.5-.33.64-.81.6-1.12-.08-2.25-.13-3.37-.17-.8,0-1.85-.35-2.32,0s-.35,1.49-.56,2.26c-.14.49,0,.59.46.64a52.76,52.76,0,0,1,8.2,1.08c.46.12.66-.1.78-.55.35-1.32.75-2.62,1.13-3.93.41-.09.74-.17.85.44a9.34,9.34,0,0,0,.59,1.57c.2.55.39.79.92.22s1.23-.4,1.5.38c.19.56.7.51,1.12.59s.73.14.78-.41l4.33-1.37c.59.3,1.1-.2,1.68-.15,1.26.11,1.9-1,2.79-1.57,0,0,0-.2,0-.31l.17-.1c.11.22.36.21.53.32s.82.2.74.71-.4.71-.92.84c-.75.19-1.8.17-1.67,1.45,0,.13-.16.27-.24.41A3.07,3.07,0,0,1,41.57,107a.39.39,0,0,0-.31.42c-.35.33-.84.26-1.49.46a32.85,32.85,0,0,0,15.36,4.77,37.65,37.65,0,0,0,22.17-4.83c-1.53-.7-2.83-1.26-4.09-1.89a2.28,2.28,0,0,0-2.41-.09c-.52-.52-1.06-.15-1.45.1a11.74,11.74,0,0,1-2.32,1c-.18.07-.34.14-.52,0s-.62-.33-.59-.78.32-.58.63-.76,1,0,1-.73a.12.12,0,0,1,.14-.05c.23.28.29.11.34-.12a.1.1,0,0,1,.13,0c.39.4.56.15.67-.23.31-.28.8-.24,1.07-.58-.54-.34-1-.64-1.53-1a30.76,30.76,0,0,1-6.15-5.58,2.79,2.79,0,0,0-.79-1l-.12-.17c0-.1-.06-.22-.18-.2s-.12.13-.06.23c-.53,1.49-1.05,3-1.58,4.46-.07.19,0,.5-.3.51s-.22-.33-.27-.51a34.3,34.3,0,0,0-2-5.13,21,21,0,0,1-3.88,4.54l-.7.13c-.79.13-1-.15-.94-1,.13-1.09,1-1.52,1.78-2s1.57-.92,1.51-1.71.11-1.45.08-2.17a30.67,30.67,0,0,0,1.73-2.78c.7-1.45,1.39-2.9,2.09-4.34.11-.22.12-.56.5-.51A34,34,0,0,0,61.61,90a22.47,22.47,0,0,0,2.54,4,31.12,31.12,0,0,0,6.55,6,22.92,22.92,0,0,0,9.88,4.06c.32,0,.62.09.78-.23.45-.92.88-1.85,1.36-2.85a25,25,0,0,1-4.8-.28,20.31,20.31,0,0,1-7.14-3,12,12,0,0,0-1.94-1.46A37.24,37.24,0,0,1,62.51,89l-1.62-3.24-.34-1.44c0-.34-.08-.68-.08-1-.11-4.79-.08-9.58.06-14.37a71.65,71.65,0,0,1,.57-7.17c.53-3,1.18-5.88,1.52-8.87,1,5.74-.41,11.46-.23,17.22.44-.06.5-.36.63-.57a13.46,13.46,0,0,0,1.17-3,24.32,24.32,0,0,0,1.08-11.35,26.82,26.82,0,0,0-3.06-8.56,1.56,1.56,0,0,0,.35-.6c.12-.61.45-.7,1-.34.29.21.57.49,1,.41a4.71,4.71,0,0,1,.33.45c3.78,6.15,4,12.71,2.17,19.48-.3,1.1-.74,2.17-1.11,3.26l-1.73,3.46a6.33,6.33,0,0,0,2.42-2.61.9.9,0,0,0,.18-.15A29.06,29.06,0,0,0,70,63.3a40.28,40.28,0,0,0,1.92-7.88,20.36,20.36,0,0,0-2.7-11.59,26.23,26.23,0,0,0-3.62-5,1.6,1.6,0,0,0-.24-1.22c-.34-.47-.54-1-.22-1.44a1.2,1.2,0,0,1,1.55-.54,10.06,10.06,0,0,1,2.21,2.93c3.07,4.66,4.94,9.69,4.67,15.37a37.15,37.15,0,0,1-1.2,7,31,31,0,0,1-4.8,10.81,51.17,51.17,0,0,1-4.58,5.27,2.38,2.38,0,0,0-.51,2.62,21.23,21.23,0,0,0,3.25-1.77,31.4,31.4,0,0,0,8.75-9.08,26.59,26.59,0,0,0,4.1-18.08,36.7,36.7,0,0,0-2.72-10.55,67.71,67.71,0,0,0-4-7,.83.83,0,0,0,0-.31,11.46,11.46,0,0,0-2.06-3.05c-.16-.21-.43-.14-.64,0h-.06c.31-.56-.13-1-.23-1.52,0-.27-.12-.54.1-.75a.66.66,0,0,1,.82-.1c.88.67,2.13.77,2.75,1.82.13.23.24.14.34,0l.4.51c-.06.07-.18.16-.16.21.06.23.27.14.43.17v0c-.1.43,0,.64.51.59l.25.34c-.16,0-.32.07-.18.3.27.44.55.88.83,1.32.14.23.31.35.58.18a0,0,0,0,1,0,.07c-.25.38,0,.66.19,1a28.85,28.85,0,0,1,1.91,4c.57,1.24,1.17,2.58,2.91,2.56a4.63,4.63,0,0,1,1,.21,2.81,2.81,0,0,1,2.22,2.65,1.65,1.65,0,0,0,.23.76.87.87,0,0,1-.42,1.43.63.63,0,0,0-.44.68,14.55,14.55,0,0,1-1.84-1.39c0,.08-.1.13-.09.17.12.68.21,1.37.37,2.05a30.12,30.12,0,0,1,.2,12.22,39.16,39.16,0,0,1-3.2,9.43c-.16.36-.16.53.23.66s.74.3,1.12.43a33.38,33.38,0,0,1,6.38,2.91c1.29.79,2.56,1.59,3.87,2.53a23.18,23.18,0,0,0,0-2.51A68.61,68.61,0,0,0,87,57.84c-.75-2.16-1.62-4.27-2.44-6.4a2.06,2.06,0,0,1,.13-2.09c.08.07.14.1.16.14.32.62.64,1.24,1,1.87a61.78,61.78,0,0,1,5.87,17.49,55.14,55.14,0,0,1,.76,7,2.67,2.67,0,0,0,.71,2.17A30.45,30.45,0,0,1,96.91,82c.24.3.45.61.73,1,.09-.8.17-1.47.23-2.14A44.74,44.74,0,0,0,96.6,67.48a36,36,0,0,0-6.09-13.21,65.36,65.36,0,0,0-5-5.9.8.8,0,0,1,.67-.48c.53-.12,1.06-.1,1.59-.17a2,2,0,0,1,2.49,1.86c0,.38.11.84.55.87a1.32,1.32,0,0,1,1.08.85c.41.76,1,1.36,1.38,2.15a1.07,1.07,0,0,0,.65.68c.73.17.85.74,1,1.31s.08.92.49,1.23a2.38,2.38,0,0,1,1,2.43.67.67,0,0,0,.37.81,2.65,2.65,0,0,0,1.37.41,44.81,44.81,0,0,1,3.25,13,35.54,35.54,0,0,1-.61,11.77,1.17,1.17,0,0,0,.22,1c4.61,7.3,8.22,15.14,12.09,22.84,1.14,2.28,2.33,4.53,3.39,6.86.12.26.25.53.36.8.46,1.14,0,1.83-1.29,1.71a25.56,25.56,0,0,1-2.78-.45c-9.16-2-18.4-3.56-27.51-5.78-1.28-.31-2.54-.67-3.8-1.05a1.6,1.6,0,0,0-1.3.11,55.25,55.25,0,0,1-12.26,4.6,42.68,42.68,0,0,1-24.48-1.63c-2.37-.85-4.65-2-7-3-.21-.09-.39-.26-.67-.15a50.88,50.88,0,0,1-8,2.26C20.87,114.85,13.9,116,7,117.32c-1.66.32-3.33.63-5,.93a4.34,4.34,0,0,1-.88.06c-1,0-1.29-.49-1-1.42a29.83,29.83,0,0,1,1.74-3.71c.76-1.51,1.57-3,2.35-4.5A1.54,1.54,0,0,0,5.06,107ZM65.78,89.8l-.08-.1c-.09.07,0,.11,0,.14a15.75,15.75,0,0,0,3.72,4.85,5.27,5.27,0,0,0,1.35,1.23,16.57,16.57,0,0,0,7.76,3.49,9.8,9.8,0,0,0,2.81,0c.3,0,.64-.14.65-.58s-.31-.49-.64-.56c-.62-.14-1.25-.28-1.87-.44a20.19,20.19,0,0,1-6.34-3c0-.24-.25-.34-.42-.46C70.51,92.72,68.42,90.84,65.78,89.8ZM19.67,111.42a35.28,35.28,0,0,0,7.22-2.23,27,27,0,0,0-7.87-.52c-1.51-.08-3,.15-4.51,0-.28,0-.46.08-.46.4a13.8,13.8,0,0,0,.2,3.21c.07.33.22.55.61.44C16.45,112.26,18.11,112,19.67,111.42ZM76.08,82.21a4.2,4.2,0,0,1,1.56.37A16.73,16.73,0,0,1,87,91.66c.53,1.23,1,2.48,1.5,3.78a4.4,4.4,0,0,1,.62-1.64c.77-1.22,1.51-2.47,2.27-3.7a.52.52,0,0,0,.08-.64,23.7,23.7,0,0,0-4.26-5.82,11.79,11.79,0,0,0-11.14-3.29,32.54,32.54,0,0,0-3.61,1.17,13.19,13.19,0,0,1,3,.53h.33C75.81,82.22,75.93,82.24,76.08,82.21Zm8.16,7.92A19.47,19.47,0,0,0,83,88.2c-2.51-3.07-5.94-4.31-9.73-4.66A89.2,89.2,0,0,0,63,83.39a.24.24,0,0,0-.26.2,1.52,1.52,0,0,0,.82.55,18.26,18.26,0,0,0,3.55,1c2.87.54,5.8.77,8.61,1.57,2.42.7,4.61,1.76,6,4.05,1.6,3.1,2,6.52,2.62,9.89a21.16,21.16,0,0,0,1.49,5.57c.24.5.43.65,1,.45a19.9,19.9,0,0,1,4.47-1,27.58,27.58,0,0,1,5.14,0c.72.06.88-.22.76-.87s-.25-1.42-.34-2.14c-.06-.53-.26-.65-.84-.65-2.36,0-4.7.39-7,.6-.64.06-.88-.16-1-.79a52.08,52.08,0,0,0-2.1-8.26A11.34,11.34,0,0,0,84.24,90.13ZM67.35,81a31.69,31.69,0,0,0,5.9-1.69,13.37,13.37,0,0,1,12.93.92c4.31,2.69,7.14,6.64,9.25,11.14A63.6,63.6,0,0,1,100.21,106c.33,1.62.34,1.59,2,1.7.61,0,.81,0,.6-.72-.51-1.64-1-3.3-1.41-5-1.43-5.41-3-10.77-6-15.59a29.47,29.47,0,0,0-10.3-10.22,27.19,27.19,0,0,0-8.68-3.33,1.14,1.14,0,0,0-1.28.42,38.47,38.47,0,0,1-3.84,4.23Zm.57,7.59a1.74,1.74,0,0,1,.54.33A55.8,55.8,0,0,0,75,93.55a20.72,20.72,0,0,0,5.35,2.21,4.75,4.75,0,0,0,.63.14c.34,0,.47-.08.31-.4a11,11,0,0,0-3.63-4.72C74.68,88.86,71.23,89.08,67.92,88.57Zm38.72,20.76c-.85-.33-.8.29-.83.83a3.38,3.38,0,0,1-.78,2c-.43.51-.24.74.32.84l5.14.92c.18,0,.4.12.54,0s0-.4-.1-.58c-1.59-3.44-3.17-6.87-4.77-10.3-.6-1.28-1.24-2.54-1.85-3.81C104.83,102.6,105.06,106.08,106.64,109.33Zm-16.37-.23a107.32,107.32,0,0,0,13.11,3.59c.4.09.59,0,.66-.45a17.23,17.23,0,0,0,.26-3c0-.37-.12-.51-.52-.5C99.28,108.82,94.77,108.29,90.27,109.1ZM93.36,94c-1.09,1.37-1.87,2.88-3.22,3.95-.52.41.13.86.21,1.29s.42.23.65.15a11.91,11.91,0,0,1,3.68-.77c.26,0,.42-.06.29-.37A27.18,27.18,0,0,0,93.36,94Zm-69.79.09a24.71,24.71,0,0,0-2,5.07c-.13.47.19.47.51.46.88,0,1.77,0,2.65,0,.35,0,.54-.08.61-.45a5.79,5.79,0,0,1,.34-1.07.64.64,0,0,0-.05-.68A23.72,23.72,0,0,1,23.57,94.1Z"/><path class="cls-1" d="M66.64,35.63a1.2,1.2,0,0,0-1.55.54c-.32.48-.12,1,.22,1.44a1.6,1.6,0,0,1,.24,1.22c-.3,0-.37-.94-.78-.33A11.52,11.52,0,0,1,62,41.26c-.36.28-.47.48-.15,1a34.38,34.38,0,0,1,2.66,3.9c-.42.08-.7-.2-1-.41-.51-.36-.84-.27-1,.34a1.45,1.45,0,0,1-.35.59,44.77,44.77,0,0,0-5.91-6.47c-1.24-1.14-2.51-2.25-3.77-3.37.61-.45,1.15-.08,1.6.23,1.08.75,2.09,1.1,3.1-.06,0,0,.1,0,.16,0,.38.78,1.17,1.2,1.7,1.85.16.2.33,0,.49-.11a19.64,19.64,0,0,0,3.07-2.54c.22-.17.25-.34,0-.52A7.63,7.63,0,0,1,61.06,34c-.12-.18-.33-.13-.48,0-1.11.32-2.43-.09-3.35.93,0,0-.16,0-.24,0a13.14,13.14,0,0,1,2.56-2.6c.33-.26.58-.49.05-.83a4.34,4.34,0,0,1-1.12-1.14c-.33-.46-.58-.54-1-.06C56.61,31.22,55.75,32,55,33c-.09-.16-.17-.36-.4-.3s-.26.25-.27.44,0,.43,0,.64c-.52.44-.38.8.15,1.1a.9.9,0,0,1-1.45.39c-.27-.18-.56-.32-.82-.5a.64.64,0,0,0-.81-.09c-.34.23-.32.59-.3.94s.37.36.65.4c.52.06.87.22.48.81a33.27,33.27,0,0,0-3.82,4.47c-.11-.38-.17-.81-.72-.78a1,1,0,0,1-.69-.15c-.4-.3-.63-.1-.8.27-.31.71-.61,1.42-.93,2.11-.15.32-.17.76-.64.83a8.4,8.4,0,0,1,.87-2.38A45.07,45.07,0,0,1,51,32.77c.49-.62,1.44-1.27,1.39-1.83s-1.06-1.1-1.64-1.64a.67.67,0,0,0-.14-.09c-1.63-1.73-1.63-1.73-3.1,0a1.48,1.48,0,0,0-.16.27c-.14.14-.28.26-.4.4A47.22,47.22,0,0,0,39,44a27.88,27.88,0,0,0-1.85,12.86,24.42,24.42,0,0,0,5.92,13.74c.21.23.49.43.52.79-.08,0-.19,0-.24,0-.44-.31-.84-.35-1.14.16a1,1,0,0,0,.2,1.29c.39.4.74.84,1.1,1.26a1,1,0,0,1,.13,1.26,16.67,16.67,0,0,1-2.87-3.29c-.23-.81-.57-1.71-1.41-1.87a4.55,4.55,0,0,0-3,.25c-.59.31-1.16.72-1.19,1.4s.64.79,1.1,1a5.22,5.22,0,0,0,.75.28c.2.06.34.16.35.38-1.66.78-3.4,1.41-5,2.31-1.34.74-2.51,1.72-3.8,2.52-.29-.2,0-.35,0-.54A1,1,0,0,0,28,76.73c-.38-.24-.47.22-.66.47a14.44,14.44,0,0,1-1.76,2.57c-.17.14-.45.37-.19.58s.48,0,.6-.25a.94.94,0,0,1,1.19-.54c-.81.84-1.69,1.62-2.42,2.53a38.6,38.6,0,0,0-7.1,13.6c-.51,1.74-1,3.5-1.44,5.25-.72-.42-1.71-.34-2.19-1.25-.2-.36-.45,0-.6.17s0,.57-.42.6a7.81,7.81,0,0,1,.48-1.78.31.31,0,0,0,.32-.36c0-.11-.05-.21-.18-.23s-.26.12-.29.28c-.36.42-.21,1-.62,1.45a7,7,0,0,0-1.21-1.33.42.42,0,0,1,0-.38A10.88,10.88,0,0,0,12,95.29c.12-.52-.35-.68-.47-1a37.77,37.77,0,0,1,3.49-6c.35-.15.36-.31,0-.49a.55.55,0,0,1-.21-.49c.16-.15.09-.24-.07-.32a.65.65,0,0,1-.1-.49c.16-.13.11-.23,0-.31a1.61,1.61,0,0,1-.12-.81c.17-.14.12-.24-.06-.32a1.6,1.6,0,0,1-.11-.81c.17-.13.14-.23,0-.32a3.73,3.73,0,0,1-.13-1.29c.18-.13.15-.23,0-.32A4.89,4.89,0,0,1,14,80.62c.38-.17-.27-1.3.8-.87a1.32,1.32,0,0,0,.19-.31,2,2,0,0,0,.08-1.26c-.06-.24-.06-.59-.35-.67s-.29.31-.48.43a2,2,0,0,1-.37.11,13.38,13.38,0,0,1,0-2.9c.37-.3.28-.63.08-1a4.85,4.85,0,0,1,.12-1.61c.18-.09.21-.19,0-.32a2.13,2.13,0,0,1,.11-1c.24-.13.24-.29.06-.48a1,1,0,0,1,.1-.64c.57.07.41.54.34.8A2.68,2.68,0,0,0,15,72.57a1.16,1.16,0,0,0,1.61.79,1.22,1.22,0,0,1,1.07,0c-.25,3.65-.64,7.31.38,10.94.47-.11.41-.56.61-.82a43.77,43.77,0,0,1,10-9.64,38.65,38.65,0,0,1,8.21-4c.57-.2.61-.37.31-.88A23.53,23.53,0,0,1,34.4,62.1a.28.28,0,0,0-.09-.32l-.1-.48a.27.27,0,0,0-.07-.33L34,60.5a.25.25,0,0,0-.07-.33l-.08-.32a.24.24,0,0,0-.07-.33l-.1-.47a.58.58,0,0,0-.09-.65l-.06-.48a.87.87,0,0,0-.1-.81l-.1-2a3,3,0,0,0,0-1.43l.12-1.8a.42.42,0,0,0,.07-.49l.1-.63a.27.27,0,0,0,.05-.33l.12-.8a.26.26,0,0,0,.06-.33l.27-1.6a.29.29,0,0,0,.07-.34l.07-.47a.69.69,0,0,0,.12-.65l0-.32a1.53,1.53,0,0,0,.28-.94,1,1,0,0,0-.59.45c-.78.9-1.56,1.79-2.32,2.69a53.53,53.53,0,0,0-3.93,6.05l-2,0c0-.45.49-.76.45-1.33a6.75,6.75,0,0,0-2,2.23c-.91,1.51-1.78,3-2.67,4.58-.35,0-.45-.17-.5-.47a4.86,4.86,0,0,0-.24-1c-.15-.42-.45-.64-.83-.23-.66.73-1.77.65-2.43,1.38a35.66,35.66,0,0,1,5.08-8.68A44.33,44.33,0,0,1,37.15,38.28a1.44,1.44,0,0,0,.61-.61,79.42,79.42,0,0,1,8.45-12.44c3.51-4.51,7-9,10.47-13.58,1-1.4,2.32-1.35,3.34.06,3.41,4.71,6.69,9.51,10.32,14.07.9,1.13,1.71,2.34,2.55,3.51-.1.16-.21.25-.34,0-.62-1-1.87-1.15-2.75-1.82a.66.66,0,0,0-.82.1c-.22.21-.15.48-.1.75.1.51.54,1,.23,1.52a10.89,10.89,0,0,1-2-2.29c0-.1,0-.22-.17-.22s-.15.13-.17.23h0a1,1,0,0,1-.8-.67c-.06-.48-.48-.67-.8-.94A28.34,28.34,0,0,0,60.56,23c.13-.55.5-.53.86-.3s.79.33,1,.75.57.14.86.09.35-.06.33-.27a.55.55,0,0,0-.55-.5,2.09,2.09,0,0,1-1.85-1.41c-.08-.19-.36-.3-.54-.46a5.23,5.23,0,0,1-1.19-1.29c-.11-.19-.17-.33.06-.46a7.25,7.25,0,0,1,1.8,1.25.79.79,0,0,0,.84.45,1.16,1.16,0,0,0-.82-.45c.36-.1.23-.25.07-.47a37,37,0,0,1-3-4.19,21.81,21.81,0,0,1-3,4.11c.8-.09,1.16-.78,1.81-.84a3.35,3.35,0,0,1,.5,2.07c0,.38,0,.74.45.91a7.11,7.11,0,0,1-1.58.74,27.23,27.23,0,0,0-6.1,4c-.39.37-.43.64,0,1,.68.66,1.43,1.23,2.15,1.82.37.3.59.2.87-.11,1.47-1.64,3-3.26,4.43-4.9.74-.83.75-.85,1.3.12.85,1.49,1.65,3,2.65,4.42.24.34.47.77,1,.45,0,.35-.38.75.14,1,0,.36.25.56.46.81A49.33,49.33,0,0,1,66.64,35.63ZM31,74.63c.14,0,.27-.06.3-.21s-.09-.22-.23-.22-.27.07-.27.23S30.91,74.61,31,74.63ZM50.58,34.12a.28.28,0,0,0-.25.25c0,.11,0,.23.14.24s.23-.11.26-.25A.17.17,0,0,0,50.58,34.12Z"/><path class="cls-1" d="M17.66,73.4a1.22,1.22,0,0,0-1.07,0A1.16,1.16,0,0,1,15,72.57,2.68,2.68,0,0,1,14.8,71c.07-.26.23-.73-.34-.8a.49.49,0,0,1,.07-.48c.26.14.44.13.46-.23s-.11-.36-.36-.27a17.69,17.69,0,0,1,.94-3.86c.51-.28.56-.47.22-.81a10.64,10.64,0,0,1,.82-2.25c.75-.27.95-.83.47-1.3l.12-.33a.52.52,0,0,0,.64-.45c.06-.25-.11-.32-.32-.35a.72.72,0,0,1,.22-.48c.66-.73,1.77-.65,2.43-1.38.38-.41.68-.19.83.23a4.86,4.86,0,0,1,.24,1c.05.3.15.5.5.47a37.61,37.61,0,0,0-3,8.13C18.33,69.65,18,71.53,17.66,73.4Z"/><path class="cls-1" d="M98.15,60.32a2.65,2.65,0,0,1-1.37-.41.67.67,0,0,1-.37-.81,2.38,2.38,0,0,0-1-2.43c-.41-.31-.37-.81-.49-1.23s-.28-1.14-1-1.31a1.07,1.07,0,0,1-.65-.68c-.34-.79-1-1.39-1.38-2.15a1.32,1.32,0,0,0-1.08-.85c-.44,0-.5-.49-.55-.87a2,2,0,0,0-2.49-1.86c-.53.07-1.06.05-1.59.17a.8.8,0,0,0-.67.48l-2.34-2.11a.63.63,0,0,1,.44-.68A.87.87,0,0,0,84,44.15a1.65,1.65,0,0,1-.23-.76,2.81,2.81,0,0,0-2.22-2.65,4.63,4.63,0,0,0-1-.21c-1.74,0-2.34-1.32-2.91-2.56a28.85,28.85,0,0,0-1.91-4c-.19-.29-.44-.57-.19-1a40.57,40.57,0,0,1,3.1,4.59,2.69,2.69,0,0,0,.85.83A45.77,45.77,0,0,1,90.92,48.51a45.3,45.3,0,0,1,7,11.05C98,59.81,98.06,60.07,98.15,60.32Z"/><path class="cls-1" d="M13.9,78.05a2,2,0,0,0,.37-.11c.19-.12.17-.53.48-.43s.29.43.35.67A2,2,0,0,1,15,79.44a1.32,1.32,0,0,1-.19.31c-1.07-.43-.42.7-.8.87A11.06,11.06,0,0,1,13.9,78.05Z"/><path class="cls-1" d="M7.85,101.54a1.18,1.18,0,0,1-.15.83,17.08,17.08,0,0,0-1.19,2.43.59.59,0,0,1-.56.49A22.76,22.76,0,0,1,7.85,101.54Z"/><path class="cls-1" d="M10.42,96.4a2.85,2.85,0,0,1-1.24,2.44A17.48,17.48,0,0,1,10.42,96.4Z"/><path class="cls-1" d="M75.54,32.94c-.27.17-.44.05-.58-.18-.28-.44-.56-.88-.83-1.32-.14-.23,0-.26.18-.3A8.2,8.2,0,0,1,75.54,32.94Z"/><path class="cls-1" d="M9.12,99a1.6,1.6,0,0,1-.88,1.81A8.9,8.9,0,0,1,9.12,99Z"/><path class="cls-1" d="M5.06,107a1.54,1.54,0,0,1-.85,1.67A7.73,7.73,0,0,1,5.06,107Z"/><path class="cls-1" d="M17.08,61c.48.47.28,1-.47,1.3A4.22,4.22,0,0,1,17.08,61Z"/><path class="cls-1" d="M14.63,69.18c.25-.09.37,0,.36.27s-.2.37-.46.23A.63.63,0,0,1,14.63,69.18Z"/><path class="cls-1" d="M14,74.18c.2.34.29.67-.08,1A1.79,1.79,0,0,1,14,74.18Z"/><path class="cls-1" d="M17.52,59.83c.21,0,.38.1.32.35a.52.52,0,0,1-.64.45l.11-.31c.23-.07.25-.24.21-.44Z"/><path class="cls-1" d="M8.17,100.92c.37.47.12.6-.34.62A1,1,0,0,1,8.17,100.92Z"/><path class="cls-1" d="M15.79,64.51c.34.34.29.53-.22.81C15.65,65.05,15.72,64.78,15.79,64.51Z"/><path class="cls-1" d="M74.06,30.8c-.46.05-.61-.16-.51-.59A1.13,1.13,0,0,1,74.06,30.8Z"/><path class="cls-1" d="M14.36,70.8c.18.19.18.35-.06.48A.54.54,0,0,1,14.36,70.8Z"/><path class="cls-1" d="M15.07,87.72c.33.18.32.34,0,.49Z"/><path class="cls-1" d="M73.56,30.18c-.16,0-.37.06-.43-.17,0-.05.1-.14.16-.21Z"/><path class="cls-1" d="M14.64,86.11c.16.08.21.18,0,.31A.27.27,0,0,1,14.64,86.11Z"/><path class="cls-1" d="M14.46,85c.18.08.23.18.06.32A.29.29,0,0,1,14.46,85Z"/><path class="cls-1" d="M14.31,83.85c.18.09.21.19,0,.32Z"/><path class="cls-1" d="M14.15,82.24c.18.09.21.19,0,.32A.29.29,0,0,1,14.15,82.24Z"/><path class="cls-1" d="M17.52,59.88c0,.2,0,.37-.21.44A.56.56,0,0,1,17.52,59.88Z"/><path class="cls-1" d="M14.19,72.25c.17.13.14.23,0,.32A.29.29,0,0,1,14.19,72.25Z"/><path class="cls-1" d="M14.79,86.91c.16.08.23.17.07.32A.26.26,0,0,1,14.79,86.91Z"/><path class="cls-2" d="M52.53,36.8c1.26,1.12,2.53,2.23,3.77,3.37a44.77,44.77,0,0,1,5.91,6.47,27,27,0,0,1,3.06,8.57,24.32,24.32,0,0,1-1.08,11.35,13.46,13.46,0,0,1-1.17,3c-.13.21-.19.51-.63.57-.18-5.76,1.26-11.48.23-17.22-.34,3-1,5.92-1.52,8.87a2.1,2.1,0,0,1-2.73-1.64c0-.28,0-.61-.42-.64-.42-5.36-2.17-10.39-4-15.5a12.11,12.11,0,0,0-1.68,2.6,17.25,17.25,0,0,0-3.25,9.69,27.48,27.48,0,0,0,2.58,13.37A13.29,13.29,0,0,1,52.76,72l-.09.09a20.47,20.47,0,0,1-5.2-6.47,24.67,24.67,0,0,1-2.28-6.06A21,21,0,0,1,46.63,44.5c.53-1.11,1.19-2.15,1.78-3.23a33.27,33.27,0,0,1,3.82-4.47Z"/><path class="cls-3" d="M83.18,46.26l2.34,2.11a65.36,65.36,0,0,1,5,5.9A36,36,0,0,1,96.6,67.48a44.74,44.74,0,0,1,1.27,13.33c-.06.67-.14,1.34-.23,2.14-.28-.38-.49-.69-.73-1a30.45,30.45,0,0,0-3.79-3.91,2.67,2.67,0,0,1-.71-2.17,55.14,55.14,0,0,0-.76-7,61.78,61.78,0,0,0-5.87-17.49c-.31-.63-.63-1.25-1-1.87,0,0-.08-.07-.16-.14a2.06,2.06,0,0,0-.13,2.09c.82,2.13,1.69,4.24,2.44,6.4a68.61,68.61,0,0,1,3.23,14.92,23.18,23.18,0,0,1,0,2.51c-1.31-.94-2.58-1.74-3.87-2.53A33.38,33.38,0,0,0,80,69.83c-.38-.13-.74-.3-1.12-.43s-.39-.3-.23-.66a39.16,39.16,0,0,0,3.2-9.43,30.12,30.12,0,0,0-.2-12.22c-.16-.68-.25-1.37-.37-2.05,0,0,0-.09.09-.17A14.55,14.55,0,0,0,83.18,46.26Z"/><path class="cls-3" d="M66.64,35.63a49.33,49.33,0,0,0-3.18-4.17c-.21-.25-.46-.45-.46-.81a34.07,34.07,0,0,0,3.71-3.06h.35a10.89,10.89,0,0,0,2,2.29h.06a37.17,37.17,0,0,0,2.68,3.33,67.71,67.71,0,0,1,4,7,36.7,36.7,0,0,1,2.72,10.55,26.59,26.59,0,0,1-4.1,18.08,31.4,31.4,0,0,1-8.75,9.08,21.23,21.23,0,0,1-3.25,1.77,2.38,2.38,0,0,1,.51-2.62,51.17,51.17,0,0,0,4.58-5.27A31,31,0,0,0,72.32,61a37.15,37.15,0,0,0,1.2-7c.27-5.68-1.6-10.71-4.67-15.37A10.06,10.06,0,0,0,66.64,35.63Z"/><path class="cls-3" d="M70.8,105.85a2.28,2.28,0,0,1,2.41.09c1.26.63,2.56,1.19,4.09,1.89a37.65,37.65,0,0,1-22.17,4.83,32.85,32.85,0,0,1-15.36-4.77c.65-.2,1.14-.13,1.49-.47a11.61,11.61,0,0,0,2.81-1.31c1.06-.62,2.06-1.06,3.19-.21a1.6,1.6,0,0,0,.45.16,19.88,19.88,0,0,0,5.47,1.66,18.06,18.06,0,0,0,3.5.53A27.67,27.67,0,0,0,70.8,105.85Z"/><path class="cls-4" d="M67.35,81l4-3.43a38.47,38.47,0,0,0,3.84-4.23,1.14,1.14,0,0,1,1.28-.42,27.19,27.19,0,0,1,8.68,3.33,29.47,29.47,0,0,1,10.3,10.22c3,4.82,4.53,10.18,6,15.59.44,1.66.9,3.32,1.41,5,.21.67,0,.76-.6.72-1.65-.11-1.66-.08-2-1.7a63.6,63.6,0,0,0-4.78-14.67c-2.11-4.5-4.94-8.45-9.25-11.14a13.37,13.37,0,0,0-12.93-.92A31.69,31.69,0,0,1,67.35,81Z"/><path class="cls-4" d="M40.78,72.08a16.67,16.67,0,0,0,2.87,3.29l.42.45a3.28,3.28,0,0,0,.91.91.88.88,0,0,0,.47.46c1.44,1.38,3,2.63,4.7,4-.51-.08-.82-.12-1.13-.18a38.32,38.32,0,0,1-6.58-2,13.93,13.93,0,0,0-6.15-.87,9.88,9.88,0,0,0-4.23,1.07l-.15,0c-.11,0-.16,0-.2.14a11.65,11.65,0,0,0-4.43,3.27,34.87,34.87,0,0,0-5.67,9.19,59.87,59.87,0,0,0-4.43,14c0,.16,0,.33-.07.48-.11.42.21,1-.26,1.25a3.11,3.11,0,0,1-1.91,0c-.52-.11-.22-.52-.12-.78a39.3,39.3,0,0,0,1.43-5.85c.48-1.75.93-3.51,1.44-5.25a38.6,38.6,0,0,1,7.1-13.6c.73-.91,1.61-1.69,2.42-2.53l1.36-1.17c1.29-.8,2.46-1.78,3.8-2.52,1.62-.9,3.36-1.53,5-2.31a7.83,7.83,0,0,1,1.78-.37C40,73.23,40.65,73.05,40.78,72.08Z"/><path class="cls-1" d="M36.27,104.86c-.05.55-.47.47-.78.41s-.93,0-1.12-.59c-.27-.78-1-1-1.5-.38s-.72.33-.92-.22a9.34,9.34,0,0,1-.59-1.57c-.11-.61-.44-.53-.85-.44a17.37,17.37,0,0,1,.93-3.39c.4.21.54.93,1.21.57A2.21,2.21,0,0,0,33,97c-.41-.54-.61.28-1,.25a.45.45,0,0,0-.16,0A11.91,11.91,0,0,1,32.76,95c.32,0,.27.36.4.55s.56.59.93.47.42-.54.39-.9c-.06-.88-.7-.95-1.38-.95A15.27,15.27,0,0,1,36,89.82c1.65-1.46,3.34-2.87,5.63-3.23a2.52,2.52,0,0,0,0,.48.41.41,0,0,0,.5.31,1.8,1.8,0,0,0,1.11-.58c.15-.2-.32-.19-.38-.41a21.71,21.71,0,0,1,3.74-.74c.13.16.23.12.31,0a1.82,1.82,0,0,1,1-.12c.13.16.23.12.31,0a37,37,0,0,0,5.11-1.13c.46.48.83.43,1.19-.14a1.25,1.25,0,0,1,1.92-.32,7.73,7.73,0,0,1-.12,1.52c-1.1,4.58-4,7.91-7.45,10.9-.68-.3-1.42,0-2.11-.19.16-.17.33-.35.5-.51a25.88,25.88,0,0,0,4.2-4.73,5.24,5.24,0,0,0,.81-1.64c-.59.32-.88.86-1.42,1a.69.69,0,0,0-.67-.44c-.6-.06-1.19-.16-1.79-.24l1.11-.73c-1.65.5-3.34.09-5,.34,0-.08-.08-.22-.13-.23s-.16.13-.19.25a11.1,11.1,0,0,0-6.39,2.85c-.08-.24-.07-.63-.44-.53a1.13,1.13,0,0,0-.71.72c-.11.34.08.56.39.69a7.71,7.71,0,0,0-1.24,2.62c0,.76-.62,1.23-1,1.77-.2.28-.35.45-.07.73v.46c0,.36-.31.54-.53.77s-.36.36-.11.61c.44.43.71,1.14,1.55.9a.29.29,0,0,1,.36.24,12.35,12.35,0,0,1-1.36,0c-.73-.08-.76.24-.52.78.38.83.79,1.65,1.12,2.49A.75.75,0,0,0,36.27,104.86Zm7-16.7a.59.59,0,0,0,.72.32.15.15,0,0,0,.07-.26C43.83,88,43.58,88,43.25,88.16Z"/><path class="cls-3" d="M61.3,95.92l.12.17c-.09.61.1,1,.79,1a30.76,30.76,0,0,0,6.15,5.58c.49.33,1,.63,1.53,1-.27.34-.76.3-1.07.58a1,1,0,0,0-.67.23.1.1,0,0,0-.13,0l-.34.12a.12.12,0,0,0-.14.05A24.54,24.54,0,0,1,61,106.09a28.07,28.07,0,0,1-11-1.7,12.22,12.22,0,0,1-1.77-.89,22.21,22.21,0,0,0,4.8-3.68,21,21,0,0,0,3.88-4.54,34.3,34.3,0,0,1,2,5.13c.05.18,0,.51.27.51s.23-.32.3-.51c.53-1.48,1.05-3,1.58-4.46Z"/><path class="cls-2" d="M64.51,46.12a34.38,34.38,0,0,0-2.66-3.9c-.32-.48-.21-.68.15-1a11.52,11.52,0,0,0,2.77-2.76c.41-.61.48.3.78.33a26.23,26.23,0,0,1,3.62,5,20.36,20.36,0,0,1,2.7,11.59A40.28,40.28,0,0,1,70,63.3,29.06,29.06,0,0,1,66.77,70a.9.9,0,0,1-.18.15l-.69-.85c.37-1.09.81-2.16,1.11-3.26,1.85-6.77,1.61-13.33-2.17-19.48A4.71,4.71,0,0,0,64.51,46.12Z"/><path class="cls-4" d="M36.27,104.86a.75.75,0,0,1-1.1-.53c-.33-.84-.74-1.66-1.12-2.49-.24-.54-.21-.86.52-.78a12.35,12.35,0,0,0,1.36,0h.33a11.85,11.85,0,0,0,2.91-.24,18.22,18.22,0,0,0,9.67-4.51c3.43-3,6.35-6.32,7.45-10.9a7.73,7.73,0,0,0,.12-1.52l.11,0c.26.13.46.38.78.35,1.09-.09,2.16.17,3.25.17.11.48.23,1,.34,1.44a1.84,1.84,0,0,0-1.79-.29c-.38,0-.39.29-.5.51-.7,1.44-1.39,2.89-2.09,4.34a30.67,30.67,0,0,1-1.73,2.78,36.28,36.28,0,0,1-9.52,8.24l-.17.1-4.49,2Z"/><path class="cls-2" d="M84.24,90.13a11.34,11.34,0,0,1,1.65,3.54,52.08,52.08,0,0,1,2.1,8.26c.11.63.35.85,1,.79,2.34-.21,4.68-.56,7-.6.58,0,.78.12.84.65.09.72.2,1.43.34,2.14s0,.93-.76.87a27.58,27.58,0,0,0-5.14,0,19.9,19.9,0,0,0-4.47,1c-.59.2-.78,0-1-.45a21.16,21.16,0,0,1-1.49-5.57c-.61-3.37-1-6.79-2.62-9.89A3.71,3.71,0,0,0,84.24,90.13Z"/><path class="cls-2" d="M75.77,82h-.33c-.09-.3-.2-.57.17-.83a1,1,0,0,0,.48-.87,11.79,11.79,0,0,1,11.14,3.29,23.7,23.7,0,0,1,4.26,5.82.52.52,0,0,1-.08.64c-.76,1.23-1.5,2.48-2.27,3.7a4.4,4.4,0,0,0-.62,1.64c-.48-1.3-1-2.55-1.5-3.78a16.73,16.73,0,0,0-9.38-9.08,4.2,4.2,0,0,0-1.56-.37C76,82.05,76,81.85,75.77,82Z"/><path class="cls-2" d="M43.63,81.14l.7.38C36,82,31.26,87.08,27.87,94.06c-.25,0-.34-.35-.49-.58-.44-.68-.78-1.42-1.27-2a2.44,2.44,0,0,1-.05-3.12,20.23,20.23,0,0,1,4.91-6,18,18,0,0,1,3.36-1.84L36.1,80a.27.27,0,0,0,.33,0h2.08a.27.27,0,0,0,.33,0l1.61.24a3.87,3.87,0,0,0,1.26.3Z"/><path class="cls-2" d="M60.55,84.34c-1.09,0-2.16-.26-3.25-.17-.32,0-.52-.22-.78-.35,0-.9,0-1.8,0-2.71.09-1.72.19-3.45.28-5.17l.39-4.82a1.64,1.64,0,0,0,.1-.38A92,92,0,0,0,58,59.49c.41,0,.38.36.42.64a2.1,2.1,0,0,0,2.73,1.64,71.65,71.65,0,0,0-.57,7.17c-.14,4.79-.17,9.58-.06,14.37C60.47,83.66,60.52,84,60.55,84.34Z"/><path class="cls-1" d="M45.26,101.36a36.28,36.28,0,0,0,9.52-8.24c0,.72-.15,1.42-.08,2.17s-.82,1.28-1.51,1.71-1.65.91-1.78,2c-.1.8.15,1.08.94,1l.7-.13a22.21,22.21,0,0,1-4.8,3.68,12.22,12.22,0,0,0,1.77.89,28.07,28.07,0,0,0,11,1.7,24.54,24.54,0,0,0,6.55-1.44c0,.69-.64.52-1,.73s-.59.35-.63.76.32.57.59.78.34.07.52,0a11.74,11.74,0,0,0,2.32-1c.39-.25.93-.62,1.45-.1a27.67,27.67,0,0,1-14.12,2.4,18.06,18.06,0,0,1-3.5-.53,2.12,2.12,0,0,0,.11-.69,5.56,5.56,0,0,0-2.64-2,4.51,4.51,0,0,1-2.1-.27c-.53-.19-.76,0-.83.52a7.09,7.09,0,0,0,0,.8,1.6,1.6,0,0,1-.45-.16c-1.13-.85-2.13-.41-3.19.21a11.61,11.61,0,0,1-2.81,1.31.39.39,0,0,1,.31-.41,3.07,3.07,0,0,0,2.13-1.92c.08-.14.25-.28.24-.41-.13-1.28.92-1.26,1.67-1.45.52-.13.84-.37.92-.84s-.45-.52-.74-.71S45.37,101.58,45.26,101.36Z"/><path class="cls-2" d="M31.44,98.68a17.37,17.37,0,0,0-.93,3.39c-.38,1.31-.78,2.61-1.13,3.93-.12.45-.32.67-.78.55a52.76,52.76,0,0,0-8.2-1.08c-.47,0-.6-.15-.46-.64.21-.77.08-1.87.56-2.26s1.52-.07,2.32,0c1.12,0,2.25.09,3.37.17.48,0,.67-.1.81-.6A48.17,48.17,0,0,1,29.94,94c.12-.24.28-.45.42-.68a9.31,9.31,0,0,1,2.39,1.17V95a11.91,11.91,0,0,0-.91,2.25l-.12.6-.13.37Z"/><path class="cls-1" d="M56.84,75.94l-.28,5.17c-.1,0-.25,0-.3-.1-.38-.56-.77-.87-1.32-.17,0,.07-.26.09-.37.06a2.37,2.37,0,0,0-1.84.29,1.41,1.41,0,0,1-1.23.14.46.46,0,0,0-.63.21,1.13,1.13,0,0,1-1.32.53,9.73,9.73,0,0,1-2.88-.9,2.89,2.89,0,0,0-3,0l-1.92-.57c0-.27.32-.56,0-.8a.86.86,0,0,0-.9,0,.65.65,0,0,0-.35.51L38.84,80c-.09-.2-.2-.22-.33,0H36.43c-.14-.2-.24-.17-.33,0l-1.77.43c-.08-.4-.41-.41-.73-.49a2.25,2.25,0,0,1-1.54-.84,9.88,9.88,0,0,1,4.23-1.07,13.93,13.93,0,0,1,6.15.87A38.32,38.32,0,0,0,49,81c.31.06.62.1,1.13.18-1.72-1.35-3.26-2.6-4.7-4,0-.45.17-.39.49-.22,1.13.6,2.27,1.17,3.41,1.73A.77.77,0,0,0,50.52,78c0-.14,0-.25.14-.33l4.07,2.45a10.69,10.69,0,0,1,.15-1.64,1.16,1.16,0,0,0-.41-1.28,8.53,8.53,0,0,1-1.37-1.57,2.18,2.18,0,0,1,.69-.14c.56.08,1.13-.45,1.66,0A1.64,1.64,0,0,0,56.84,75.94ZM55.6,79.22c0-.17-.05-.34-.27-.3s-.2.22-.19.38,0,.34.26.3S55.59,79.38,55.6,79.22Z"/><path class="cls-4" d="M62.51,89a37.24,37.24,0,0,0,6.33,7.22c-.35.86-.24,1.26.46,1.68s1-.07,1.48-.22a20.31,20.31,0,0,0,7.14,3,25,25,0,0,0,4.8.28c-.48,1-.91,1.93-1.36,2.85-.16.32-.46.27-.78.23A22.92,22.92,0,0,1,70.7,100a31.12,31.12,0,0,1-6.55-6,22.47,22.47,0,0,1-2.54-4C62.09,89.85,62,89.12,62.51,89Z"/><path class="cls-4" d="M84.24,90.13a3.71,3.71,0,0,1-2.54.66c-1.34-2.29-3.53-3.35-6-4.05-2.81-.8-5.74-1-8.61-1.57a18.26,18.26,0,0,1-3.55-1,1.52,1.52,0,0,1-.82-.55.24.24,0,0,1,.26-.2,89.2,89.2,0,0,1,10.21.15c3.79.35,7.22,1.59,9.73,4.66A19.47,19.47,0,0,1,84.24,90.13Z"/><path class="cls-4" d="M46.59,85.65a21.71,21.71,0,0,0-3.74.74,2.76,2.76,0,0,0-1.27.2c-2.29.36-4,1.77-5.63,3.23-.21-.42-.57-.48-1-.5-.75,0-1.51.37-2.26,0a13.94,13.94,0,0,1,9.92-5.65,56.17,56.17,0,0,1,10.77-.18c.25,0,.64-.11.69.21s-.33.37-.57.47a1.37,1.37,0,0,0-.2.13,37,37,0,0,1-5.11,1.13.25.25,0,0,0-.31,0,1.82,1.82,0,0,0-1,.12A.26.26,0,0,0,46.59,85.65Z"/><path class="cls-2" d="M13.52,98.68a7.81,7.81,0,0,0-.48,1.78l-.07.28a6.38,6.38,0,0,0-.34,2.16c-.34,1.51-.67,3-1,4.51a5.87,5.87,0,0,1-.55,2c1.3-.36,1.43.42,1.53,1.3a4.34,4.34,0,0,0,.58,1.66c.16.27.25.49-.21.54-2.13.23-4.21.77-6.35,1-.7.06-.7-.13-.43-.67,2.05-4.16,3.93-8.41,6.17-12.47.15-.28.26-.59.39-.88.41-.4.26-1,.62-1.45Z"/><path class="cls-2" d="M67.92,88.57c3.31.51,6.76.29,9.75,2.21A11,11,0,0,1,81.3,95.5c.16.32,0,.45-.31.4a4.75,4.75,0,0,1-.63-.14A20.72,20.72,0,0,1,75,93.55a55.8,55.8,0,0,1-6.55-4.65A1.74,1.74,0,0,0,67.92,88.57Z"/><path class="cls-2" d="M106.64,109.33c-1.58-3.25-1.81-6.73-2.33-10.15.61,1.27,1.25,2.53,1.85,3.81,1.6,3.43,3.18,6.86,4.77,10.3.08.18.28.38.1.58s-.36.07-.54,0l-5.14-.92c-.56-.1-.75-.33-.32-.84a3.38,3.38,0,0,0,.78-2C105.84,109.62,105.79,109,106.64,109.33Z"/><path class="cls-2" d="M90.27,109.1c4.5-.81,9-.28,13.51-.32.4,0,.52.13.52.5a17.23,17.23,0,0,1-.26,3c-.07.41-.26.54-.66.45A107.32,107.32,0,0,1,90.27,109.1Z"/><path class="cls-2" d="M73.17,94.82a20.19,20.19,0,0,0,6.34,3c.62.16,1.25.3,1.87.44.33.07.66.11.64.56s-.35.54-.65.58a9.8,9.8,0,0,1-2.81,0,16.57,16.57,0,0,1-7.76-3.49,5.27,5.27,0,0,1-1.35-1.23c.08-.45.37-.24.61-.19A6.58,6.58,0,0,0,73.17,94.82Z"/><path class="cls-2" d="M19.67,111.42c-1.56.61-3.22.84-4.81,1.29-.39.11-.54-.11-.61-.44a13.8,13.8,0,0,1-.2-3.21c0-.32.18-.43.46-.4,1.5.16,3-.07,4.51,0a1.75,1.75,0,0,1-.15.93.83.83,0,0,0,.22,1.18C19.31,111,19.47,111.21,19.67,111.42Z"/><path class="cls-5" d="M32.69,89.33c.75.36,1.51,0,2.26,0,.43,0,.79.08,1,.5a15.27,15.27,0,0,0-2.85,4.33l-.35.36a9.31,9.31,0,0,0-2.39-1.17A13,13,0,0,1,32.69,89.33Z"/><path class="cls-2" d="M93.36,94A27.18,27.18,0,0,1,95,98.26c.13.31,0,.37-.29.37A11.91,11.91,0,0,0,91,99.4c-.23.08-.58.25-.65-.15s-.73-.88-.21-1.29C91.49,96.89,92.27,95.38,93.36,94Z"/><path class="cls-2" d="M23.57,94.1a23.72,23.72,0,0,0,2.09,3.32.64.64,0,0,1,.05.68,5.79,5.79,0,0,0-.34,1.07c-.07.37-.26.46-.61.45-.88,0-1.77,0-2.65,0-.32,0-.64,0-.51-.46A24.71,24.71,0,0,1,23.57,94.1Z"/><path class="cls-2" d="M19.67,111.42c-.2-.21-.36-.45-.58-.64a.83.83,0,0,1-.22-1.18,1.75,1.75,0,0,0,.15-.93,27,27,0,0,1,7.87.52A35.28,35.28,0,0,1,19.67,111.42Z"/><path class="cls-2" d="M73.17,94.82a6.58,6.58,0,0,1-3.11-.32c-.24,0-.53-.26-.61.19a15.75,15.75,0,0,1-3.72-4.85l0,0c2.64,1,4.73,2.92,7,4.56C72.92,94.48,73.12,94.58,73.17,94.82Z"/><path class="cls-5" d="M62.51,89c-.56.1-.42.83-.9,1a34,34,0,0,1-2.51-4.54,1.84,1.84,0,0,1,1.79.29Z"/><path class="cls-6" d="M65.9,69.31l.69.85a6.33,6.33,0,0,1-2.42,2.61Z"/><path class="cls-6" d="M76.09,80.35a1,1,0,0,1-.48.87c-.37.26-.26.53-.17.83a13.19,13.19,0,0,0-3-.53A32.54,32.54,0,0,1,76.09,80.35Z"/><path class="cls-1" d="M40.6,103.49l4.49-2c0,.11,0,.28,0,.31-.89.6-1.53,1.68-2.79,1.57C41.7,103.29,41.19,103.79,40.6,103.49Z"/><path class="cls-5" d="M70.78,97.7c-.48.15-.92.56-1.48.22s-.81-.82-.46-1.68A12,12,0,0,1,70.78,97.7Z"/><path class="cls-1" d="M71.85,33.19a37.17,37.17,0,0,1-2.68-3.33c.21-.17.48-.24.64,0a11.46,11.46,0,0,1,2.06,3.05A.83.83,0,0,1,71.85,33.19Z"/><path class="cls-1" d="M12.63,102.9a6.38,6.38,0,0,1,.34-2.16A2.16,2.16,0,0,1,12.63,102.9Z"/><path class="cls-5" d="M62.21,97.07c-.69,0-.88-.37-.79-1A2.79,2.79,0,0,1,62.21,97.07Z"/><path class="cls-1" d="M68.15,104.43a1,1,0,0,1,.67-.23C68.71,104.58,68.54,104.83,68.15,104.43Z"/><path class="cls-5" d="M61.3,95.92l-.24,0c-.06-.1-.07-.21.06-.23S61.28,95.82,61.3,95.92Z"/><path class="cls-6" d="M75.77,82c.24-.19.27,0,.31.17C75.93,82.24,75.81,82.22,75.77,82Z"/><path class="cls-7" d="M67.68,104.6l.34-.12C68,104.71,67.91,104.88,67.68,104.6Z"/><path class="cls-7" d="M31.71,79.33c0-.09.09-.16.2-.14Z"/><path class="cls-6" d="M65.73,89.84c-.06,0-.12-.07,0-.14l.08.1Z"/><path class="cls-3" d="M17.66,73.4c.36-1.87.67-3.75,1.09-5.6a37.61,37.61,0,0,1,3-8.13c.89-1.53,1.76-3.07,2.67-4.58a6.75,6.75,0,0,1,2-2.23c0,.57-.42.88-.45,1.33a18.27,18.27,0,0,0-1.45,3.48A46.15,46.15,0,0,0,21.4,74.59a12.58,12.58,0,0,0,.31,2.7A3.57,3.57,0,0,0,22.24,76c.33-2.12.64-4.24,1-6.36a50.25,50.25,0,0,1,2.83-11.05c.6-1.46,1.24-2.91,1.86-4.36a53.53,53.53,0,0,1,3.93-6.05c.76-.9,1.54-1.79,2.32-2.69.38,0,.11.39.31.49l0,.32c-.32.16-.3.39-.12.65l-.07.47c-.17.09-.25.18-.07.34l-.27,1.6c-.15.08-.24.18-.06.33l-.12.8c-.14.09-.22.18-.05.33,0,.21-.07.42-.1.63-.2.14-.25.3-.07.49l-.12,1.8a1.48,1.48,0,0,0,0,1.43l.1,2a.58.58,0,0,0,.1.81l.06.48a.42.42,0,0,0,.09.65l.1.47c-.17.16-.08.25.07.33l.08.32c-.16.15-.08.25.07.33l.1.47c-.17.16-.08.25.07.33l.1.48c-.18.16-.08.25.09.32A23.53,23.53,0,0,0,37.12,69c.3.51.26.68-.31.88a38.65,38.65,0,0,0-8.21,4,43.77,43.77,0,0,0-10,9.64c-.2.26-.14.71-.61.82C17,80.71,17.41,77.05,17.66,73.4Z"/><path class="cls-3" d="M53.1,75.66a8.53,8.53,0,0,0,1.37,1.57,1.16,1.16,0,0,1,.41,1.28,10.69,10.69,0,0,0-.15,1.64L50.66,77.7a.26.26,0,0,0-.26-.17L50,77.22a52,52,0,0,1-6.42-5.8c0-.36-.31-.56-.52-.79a24.42,24.42,0,0,1-5.92-13.74A27.88,27.88,0,0,1,39,44a47.22,47.22,0,0,1,7.92-14.11c.12-.14.26-.26.4-.4a1.73,1.73,0,0,0,2.62.17c.16-.24.27-.53.64-.48a.67.67,0,0,1,.14.09c.58.54,1.58,1.05,1.64,1.64s-.9,1.21-1.39,1.83a45.07,45.07,0,0,0-5.48,8.4,8.4,8.4,0,0,0-.87,2.38,2.28,2.28,0,0,0-.36,1.11l-.21.69a24.08,24.08,0,0,0-1,10,28.86,28.86,0,0,0,3.5,11.45A39.79,39.79,0,0,0,53.1,75.66Z"/><path class="cls-1" d="M44.27,44.66a2.28,2.28,0,0,1,.36-1.11c.47-.07.49-.51.64-.83.32-.69.62-1.4.93-2.11.17-.37.4-.57.8-.27a1,1,0,0,0,.69.15c.55,0,.61.4.72.78-.59,1.08-1.25,2.12-1.78,3.23a21,21,0,0,0-1.44,15.09,24.67,24.67,0,0,0,2.28,6.06,20.47,20.47,0,0,0,5.2,6.47l.13,0,0-.13a13.29,13.29,0,0,0-1.13-2.38,27.48,27.48,0,0,1-2.58-13.37,17.25,17.25,0,0,1,3.25-9.69,1.27,1.27,0,0,1,1.22.62c.43.61.74,1.31,1.53,1.57.23.08.21.35.26.56a8.83,8.83,0,0,0,.53,2.08,15.35,15.35,0,0,1,1.4,6,7.65,7.65,0,0,0,.11,1.8,9.16,9.16,0,0,1,.12,3.57c-.07.94-.5,1.91-.62,2.88a12.6,12.6,0,0,0,.38,5.49l-.39,4.82a1.64,1.64,0,0,1-1.39-.38c-.53-.49-1.1,0-1.66,0a2.18,2.18,0,0,0-.69.14,39.79,39.79,0,0,1-6.49-8.85,28.86,28.86,0,0,1-3.5-11.45,24.08,24.08,0,0,1,1-10C44.4,45.2,44.66,45,44.27,44.66ZM55.22,68.85A67.56,67.56,0,0,0,53.6,49.37C50.15,56.2,50.83,62.67,55.22,68.85Z"/><path class="cls-2" d="M60.56,23A28.34,28.34,0,0,1,65.11,26c.32.27.74.46.8.94-1,.91-2,1.81-3,2.71-.55.32-.78-.11-1-.45-1-1.41-1.8-2.93-2.65-4.42-.55-1-.56-1-1.3-.12-1.47,1.64-3,3.26-4.43,4.9-.28.31-.5.41-.87.11-.72-.59-1.47-1.16-2.15-1.82-.41-.4-.37-.67,0-1a27.23,27.23,0,0,1,6.1-4A7.11,7.11,0,0,0,58.14,22c.26-.1.45.06.66.17C59.38,22.48,60,22.75,60.56,23Z"/><path class="cls-1" d="M27.91,54.21c-.62,1.45-1.26,2.9-1.86,4.36a50.25,50.25,0,0,0-2.83,11.05c-.34,2.12-.65,4.24-1,6.36a3.57,3.57,0,0,1-.53,1.31,12.58,12.58,0,0,1-.31-2.7,46.15,46.15,0,0,1,3.09-16.92,18.27,18.27,0,0,1,1.45-3.48Z"/><path class="cls-1" d="M43.6,71.42A52,52,0,0,0,50,77.22c-.07.06-.18.13-.1.24s.32.08.48.07a.26.26,0,0,1,.26.17c-.12.08-.13.19-.14.33a.77.77,0,0,1-1.17.67c-1.14-.56-2.28-1.13-3.41-1.73-.32-.17-.48-.23-.49.22a.88.88,0,0,1-.47-.46c0-.61-.22-1-.91-.91l-.42-.45a1,1,0,0,0-.13-1.26c-.36-.42-.71-.86-1.1-1.26a1,1,0,0,1-.2-1.29c.3-.51.7-.47,1.14-.16C43.41,71.44,43.52,71.41,43.6,71.42Z"/><path class="cls-2" d="M54.48,34.85c-.53-.3-.67-.66-.15-1.1A2.37,2.37,0,0,0,55,33c.76-.93,1.62-1.75,2.45-2.61.46-.48.71-.4,1,.06a4.34,4.34,0,0,0,1.12,1.14c.53.34.28.57-.05.83A13.14,13.14,0,0,0,57,35c-.5.19-.54,1-1.14.93s-.89-.65-1.3-1Z"/><path class="cls-1" d="M54.48,34.85l.07,0c.41.38.77.92,1.3,1s.64-.74,1.14-.93c.08,0,.2,0,.24,0,.92-1,2.24-.61,3.35-.93L57.39,37c-.06,0-.13,0-.16,0-1,1.16-2,.81-3.1.06-.45-.31-1-.68-1.6-.23h-.3c.39-.59,0-.75-.48-.81-.28,0-.63,0-.65-.4s0-.71.3-.94a.64.64,0,0,1,.81.09c.26.18.55.32.82.5A.9.9,0,0,0,54.48,34.85Z"/><path class="cls-1" d="M40.78,72.08c-.13,1-.79,1.15-1.61,1.11a7.83,7.83,0,0,0-1.78.37c0-.22-.15-.32-.35-.38a5.22,5.22,0,0,1-.75-.28c-.46-.25-1.12-.43-1.1-1s.6-1.09,1.19-1.4a4.55,4.55,0,0,1,3-.25C40.21,70.37,40.55,71.27,40.78,72.08Z"/><path class="cls-2" d="M57.39,37,60.58,34c.15-.17.36-.22.48,0a7.63,7.63,0,0,0,1.63,1.63c.21.18.18.35,0,.52a19.64,19.64,0,0,1-3.07,2.54c-.16.08-.33.31-.49.11C58.56,38.15,57.77,37.73,57.39,37Z"/><path class="cls-1" d="M60.56,23c-.59-.28-1.18-.55-1.76-.84-.21-.11-.4-.27-.66-.17-.42-.17-.41-.53-.45-.91a3.35,3.35,0,0,0-.5-2.07c.83-.71,1.6-.39,2.36.14-.23.13-.17.27-.06.46a5.23,5.23,0,0,0,1.19,1.29c.18.16.46.27.54.46a2.09,2.09,0,0,0,1.85,1.41.55.55,0,0,1,.55.5c0,.21-.16.24-.33.27s-.64.31-.86-.09-.66-.53-1-.75S60.69,22.48,60.56,23Z"/><path class="cls-4" d="M59.55,19.18c-.76-.53-1.53-.85-2.36-.14-.65.06-1,.75-1.81.84a21.81,21.81,0,0,0,3-4.11,37,37,0,0,0,3,4.19c.16.22.29.37-.07.47h0A7.25,7.25,0,0,0,59.55,19.18Z"/><path class="cls-3" d="M50.59,29.21c-.37-.05-.48.24-.64.48a1.73,1.73,0,0,1-2.62-.17,1.48,1.48,0,0,1,.16-.27C49,27.48,49,27.48,50.59,29.21Z"/><path class="cls-1" d="M28.57,78.39l-1.36,1.17A.94.94,0,0,0,26,80.1c-.12.2-.4.42-.6.25s0-.44.19-.58a14.44,14.44,0,0,0,1.76-2.57c.19-.25.28-.71.66-.47a1,1,0,0,1,.56,1.12C28.54,78,28.28,78.19,28.57,78.39Z"/><path class="cls-1" d="M62.86,29.63c1-.9,2-1.8,3-2.71a1,1,0,0,0,.8.67A34.07,34.07,0,0,1,63,30.65C62.48,30.38,62.87,30,62.86,29.63Z"/><path class="cls-1" d="M55,33a2.37,2.37,0,0,1-.66.78c0-.21,0-.42,0-.64s0-.39.27-.44S54.9,32.81,55,33Z"/><path class="cls-6" d="M33.37,55.15a1.48,1.48,0,0,1,0-1.43A3,3,0,0,1,33.37,55.15Z"/><path class="cls-6" d="M34.47,46c-.2-.1.07-.51-.31-.49a1,1,0,0,1,.59-.45A1.53,1.53,0,0,1,34.47,46Z"/><path class="cls-1" d="M31,74.63c-.12,0-.21-.08-.2-.2s.12-.23.27-.23.27,0,.23.22S31.17,74.62,31,74.63Z"/><path class="cls-6" d="M33.57,57.92a.58.58,0,0,1-.1-.81A.87.87,0,0,1,33.57,57.92Z"/><path class="cls-1" d="M50.58,34.12a.17.17,0,0,1,.15.24c0,.14-.11.26-.26.25s-.17-.13-.14-.24A.28.28,0,0,1,50.58,34.12Z"/><path class="cls-1" d="M13.52,98.68l-.15-.31c0-.16.08-.32.29-.28s.16.12.18.23A.31.31,0,0,1,13.52,98.68Z"/><path class="cls-8" d="M61.35,20.43h0a1.16,1.16,0,0,1,.82.45A.79.79,0,0,1,61.35,20.43Z"/><path class="cls-6" d="M33.72,59.05a.42.42,0,0,1-.09-.65A.58.58,0,0,1,33.72,59.05Z"/><path class="cls-6" d="M34.3,46.93c-.18-.26-.2-.49.12-.65A.69.69,0,0,1,34.3,46.93Z"/><path class="cls-6" d="M33.49,51.92c-.18-.19-.13-.35.07-.49A.42.42,0,0,1,33.49,51.92Z"/><path class="cls-6" d="M34.4,62.1c-.17-.07-.27-.16-.09-.32A.28.28,0,0,1,34.4,62.1Z"/><path class="cls-6" d="M34.21,61.3c-.15-.08-.24-.17-.07-.33A.27.27,0,0,1,34.21,61.3Z"/><path class="cls-6" d="M34,60.5c-.15-.08-.23-.18-.07-.33A.25.25,0,0,1,34,60.5Z"/><path class="cls-6" d="M33.66,50.8c-.17-.15-.09-.24.05-.33A.27.27,0,0,1,33.66,50.8Z"/><path class="cls-6" d="M33.83,49.67c-.18-.15-.09-.25.06-.33A.26.26,0,0,1,33.83,49.67Z"/><path class="cls-6" d="M34.16,47.74c-.18-.16-.1-.25.07-.34A.29.29,0,0,1,34.16,47.74Z"/><path class="cls-6" d="M33.89,59.85c-.15-.08-.24-.17-.07-.33A.24.24,0,0,1,33.89,59.85Z"/><path class="cls-8" d="M67.06,27.57h-.34c0-.1,0-.22.17-.23S67,27.47,67.06,27.57Z"/><path class="cls-1" d="M57.23,71.12a12.6,12.6,0,0,1-.38-5.49c.12-1,.55-1.94.62-2.88a9.16,9.16,0,0,0-.12-3.57,7.65,7.65,0,0,1-.11-1.8,15.35,15.35,0,0,0-1.4-6,8.83,8.83,0,0,1-.53-2.08c-.05-.21,0-.48-.26-.56-.79-.26-1.1-1-1.53-1.57a1.27,1.27,0,0,0-1.22-.62A12.11,12.11,0,0,1,54,44c1.8,5.11,3.55,10.14,4,15.5a92,92,0,0,1-.62,11.25A1.64,1.64,0,0,1,57.23,71.12Z"/><path class="cls-1" d="M47.71,106.06a7.09,7.09,0,0,1,0-.8c.07-.48.3-.71.83-.52a4.51,4.51,0,0,0,2.1.27,5.56,5.56,0,0,1,2.64,2,2.12,2.12,0,0,1-.11.69A19.88,19.88,0,0,1,47.71,106.06Z"/><path class="cls-1" d="M44.07,75.82c.69-.08.92.3.91.91A3.28,3.28,0,0,1,44.07,75.82Z"/><path class="cls-2" d="M50.82,90.25c.54-.19.83-.73,1.42-1a5.24,5.24,0,0,1-.81,1.64,25.88,25.88,0,0,1-4.2,4.73c-.17.16-.34.34-.5.51a17.58,17.58,0,0,1-3.81,2.34c-2.74,1.23-5.49,1.63-8.26.09v-.46a26.38,26.38,0,0,0,5.26-1.67,77.9,77.9,0,0,0,7.87-4.31A22,22,0,0,0,50.82,90.25Z"/><path class="cls-1" d="M50.82,90.25a22,22,0,0,1-3,1.82,77.9,77.9,0,0,1-7.87,4.31,26.38,26.38,0,0,1-5.26,1.67c-.28-.28-.13-.45.07-.73.41-.54,1-1,1-1.77A20.07,20.07,0,0,0,40,93.77c2.77-1.48,5.76-2.5,8.41-4.2.6.08,1.19.18,1.79.24A.69.69,0,0,1,50.82,90.25Z"/><path class="cls-2" d="M48.36,89.57c-2.65,1.7-5.64,2.72-8.41,4.2a20.07,20.07,0,0,1-4.18,1.78A7.71,7.71,0,0,1,37,92.93a3.06,3.06,0,0,0,.76-.88,11.1,11.1,0,0,1,6.39-2.85l.32,0c1.65-.25,3.34.16,5-.34Z"/><path class="cls-1" d="M34.66,98.51c2.77,1.54,5.52,1.14,8.26-.09a17.58,17.58,0,0,0,3.81-2.34c.69.22,1.43-.11,2.11.19a18.22,18.22,0,0,1-9.67,4.51,7.33,7.33,0,0,0-2.68-.13c-.19,0-.21.21-.23.37h-.33a.29.29,0,0,0-.36-.24c-.84.24-1.11-.47-1.55-.9-.25-.25-.06-.43.11-.61S34.64,98.87,34.66,98.51Z"/><path class="cls-1" d="M31.44,98.68l.16-.48c.32,0,.18-.21.13-.37l.12-.6a.45.45,0,0,1,.16,0c.37,0,.57-.79,1-.25a2.21,2.21,0,0,1-.34,2.28C32,99.61,31.84,98.89,31.44,98.68Z"/><path class="cls-1" d="M32.75,94.51l.35-.36c.68,0,1.32.07,1.38.95,0,.36,0,.78-.39.9s-.69-.16-.93-.47-.08-.51-.4-.55Z"/><path class="cls-1" d="M41.58,86.59a2.76,2.76,0,0,1,1.27-.2c.06.22.53.21.38.41a1.8,1.8,0,0,1-1.11.58.41.41,0,0,1-.5-.31A2.52,2.52,0,0,1,41.58,86.59Z"/><path class="cls-1" d="M37.77,92.05a3.06,3.06,0,0,1-.76.88c-.31-.13-.5-.35-.39-.69a1.13,1.13,0,0,1,.71-.72C37.7,91.42,37.69,91.81,37.77,92.05Z"/><path class="cls-1" d="M43.25,88.16c.33-.15.58-.17.79.06a.15.15,0,0,1-.07.26A.59.59,0,0,1,43.25,88.16Z"/><path class="cls-1" d="M46.59,85.65a.26.26,0,0,1,.31,0C46.82,85.77,46.72,85.81,46.59,85.65Z"/><path class="cls-1" d="M47.88,85.49a.25.25,0,0,1,.31,0C48.11,85.61,48,85.65,47.88,85.49Z"/><path class="cls-1" d="M44.48,89.18l-.32,0c0-.12,0-.28.19-.25S44.44,89.1,44.48,89.18Z"/><path class="cls-1" d="M36.26,101c0-.16,0-.38.23-.37a7.33,7.33,0,0,1,2.68.13A11.85,11.85,0,0,1,36.26,101Z"/><path class="cls-1" d="M40.45,80.27a.65.65,0,0,1,.35-.51.86.86,0,0,1,.9,0c.33.24,0,.53,0,.8A3.87,3.87,0,0,1,40.45,80.27Z"/><path class="cls-1" d="M36.1,80c.09-.21.19-.24.33,0A.27.27,0,0,1,36.1,80Z"/><path class="cls-8" d="M38.51,80c.13-.19.24-.17.33,0A.27.27,0,0,1,38.51,80Z"/><path class="cls-7" d="M31.73,97.83c.05.16.19.34-.13.37Z"/><path class="cls-1" d="M55.6,79.22c0,.16,0,.34-.2.38s-.26-.14-.26-.3,0-.34.19-.38S55.58,79.05,55.6,79.22Z"/><path class="cls-1" d="M44.27,44.66c.39.36.13.54-.21.69Z"/><path class="cls-7" d="M50.4,77.53c-.16,0-.35.09-.48-.07s0-.18.1-.24Z"/><path class="cls-2" d="M55.22,68.85c-4.39-6.18-5.07-12.65-1.62-19.48A67.56,67.56,0,0,1,55.22,68.85Z"/><path class="cls-6" d="M52.76,72l0,.13-.13,0Z"/><text class="cls-9" transform="translate(147.53 56.95)">Deborah’s</text><text class="cls-10" transform="translate(148.15 120.35)">craft</text></g></g></svg>