<svg xmlns="http://www.w3.org/2000/svg" viewBox="0 0 214.05 215.83"><defs><style>.cls-1,.cls-2{fill:#fff;}.cls-1{stroke:#000;stroke-linecap:round;stroke-linejoin:round;stroke-width:1.94px;}</style></defs><g id="Camada_2" data-name="Camada 2"><g id="OBJECTS"><path class="cls-1" d="M154.83,116.38c6.06-7.23,16.67-9.21,25.38-6.06,8.3,3,9,12.52,6.52,19.68-3,8.63-12.14,13.72-20.19,16.71-7.56,2.81-17.24,5.37-25.33,3.85-4.81-.9-6.86,6.45-2,7.35,10.6,2,22.6-1,32.4-5,11.18-4.58,20.9-12.54,23.63-24.8,2.26-10.19-2.29-20.64-12.1-24.74-11.07-4.63-25.89-1.65-33.67,7.65-3.13,3.74,2.23,9.17,5.39,5.39Z"/><path d="M141.21,150.56c-4.81-.9-6.86,6.45-2,7.35a40.18,40.18,0,0,0,10.19.53c1.3-2.59,2.5-5.25,3.57-8A34.54,34.54,0,0,1,141.21,150.56Z"/><path d="M149.44,111c-3.13,3.74,2.23,9.17,5.39,5.39a20.06,20.06,0,0,1,6.66-5.16c.22-2.84.38-5.65.46-8.42A27.32,27.32,0,0,0,149.44,111Z"/><path class="cls-1" d="M107.64,183.47s15.07,5.1,16.72,8c.87,1.52-11,6-33.16,6s-34-4.45-33.17-6c1.66-2.93,16.73-8,16.73-8Z"/><path d="M74.76,183.47s-5.73,1.94-10.52,4.12a80.55,80.55,0,0,0,25,3.85,79.67,79.67,0,0,0,27.21-4.62c-4.32-1.85-8.76-3.35-8.76-3.35Z"/><path class="cls-1" d="M158,99.33c.43,11.88-10.16,55.52-18.71,66.64-8,10.44-26.46,20-50.08,20s-42-9.53-50.08-20C30.56,154.85,20,111.21,20.41,99.33Z"/><path d="M147.68,128.67c-.78-1.77-3.31-3.4-6-4.37,0,0,3.48,3.58,3.75,7.87s-2.62,8.65-2.62,8.65C147.92,138.68,150.27,134.1,147.68,128.67Z"/><path d="M148.1,128.43c-1.11-2.39-4-3.75-6.3-4.6-.48-.17-.79.49-.47.81a12.86,12.86,0,0,1,3.58,7.24,14.06,14.06,0,0,1-2.53,8.69c-.29.45.27.83.67.66a10.14,10.14,0,0,0,5.55-5.12,9.42,9.42,0,0,0-.5-7.68c-.27-.57-1.1-.07-.84.49a8.3,8.3,0,0,1,.39,7,9.39,9.39,0,0,1-5.09,4.53l.66.66a17,17,0,0,0,2.54-6.44,12,12,0,0,0-2.26-8.79A14.9,14.9,0,0,0,142,124l-.47.81c2.11.77,4.72,2,5.72,4.15C147.53,129.48,148.36,129,148.1,128.43Z"/><path d="M32.83,128.67c.78-1.77,3.3-3.4,6-4.37,0,0-3.48,3.58-3.75,7.87s2.62,8.65,2.62,8.65C32.59,138.68,30.24,134.1,32.83,128.67Z"/><path d="M33.24,128.92c1-2.16,3.62-3.39,5.73-4.15L38.5,124A15,15,0,0,0,35.31,129c-1.23,3.18-.67,6.48.66,9.53a16.46,16.46,0,0,0,1.32,2.49l.66-.66a9.36,9.36,0,0,1-5.09-4.53,8.33,8.33,0,0,1,.38-7c.27-.56-.57-1.06-.83-.49a9.38,9.38,0,0,0-.5,7.68,10.1,10.1,0,0,0,5.55,5.12c.4.17,1-.21.66-.66a14.12,14.12,0,0,1-2.53-8.69,12.81,12.81,0,0,1,3.59-7.24c.32-.32,0-1-.47-.81-2.34.85-5.19,2.21-6.3,4.6C32.15,129,33,129.48,33.24,128.92Z"/><path d="M90.25,127.45c-5.5,0-11.45,4.73-11.93,10.42s3.38,11.38,9.36,11.77c10.41.67,17.07-6.56,13.31-15.92C99.73,130.35,94,127.42,90.25,127.45Z"/><path d="M90.25,127a13.24,13.24,0,0,0-12,8.75,11.57,11.57,0,0,0,5.12,13.15,12.76,12.76,0,0,0,7.68,1.18,14.87,14.87,0,0,0,6.64-2.27,10.9,10.9,0,0,0,4.61-11.26,12,12,0,0,0-1.26-3.79,9.7,9.7,0,0,0-2.77-2.9,14.2,14.2,0,0,0-8-2.86.49.49,0,0,0,0,1,13,13,0,0,1,6.6,2.1,11.43,11.43,0,0,1,2.66,2.19,7.93,7.93,0,0,1,1.48,2.94c1.18,3.91.48,8.12-2.65,10.91a12.48,12.48,0,0,1-5.53,2.71,14.59,14.59,0,0,1-7.22,0c-4.59-1.41-7.18-6.29-6.78-10.9.46-5.49,6.14-9.84,11.44-9.93A.49.49,0,0,0,90.25,127Z"/><path class="cls-2" d="M85.47,135.67a.8.8,0,0,0,0-1.59.8.8,0,0,0,0,1.59Z"/><path class="cls-2" d="M89.09,133.82a1.25,1.25,0,0,0,0-2.5,1.25,1.25,0,0,0,0,2.5Z"/><path class="cls-2" d="M88.87,136.86a.46.46,0,0,0,0-.91.46.46,0,0,0,0,.91Z"/><path class="cls-2" d="M84.92,138.72a.23.23,0,0,0,0-.46.23.23,0,0,0,0,.46Z"/><path class="cls-2" d="M83.94,142.6a.5.5,0,0,0,0-1,.5.5,0,0,0,0,1Z"/><path d="M119.23,133.46c-1.26-3.11-7-5.8-10.73-5.77h-.09v20.44C117.35,147.63,122.68,141.38,119.23,133.46Z"/><path d="M119.69,133.33a9.49,9.49,0,0,0-4.64-4.35,13.88,13.88,0,0,0-6.64-1.77.5.5,0,0,0-.49.48v20.44a.5.5,0,0,0,.49.49,15.28,15.28,0,0,0,8.83-3.1,9.48,9.48,0,0,0,3.53-7.15,12.41,12.41,0,0,0-1.12-5.15c-.25-.57-1.08-.08-.84.49a9,9,0,0,1-5.31,12.87,16.76,16.76,0,0,1-5.09,1.07l.48.48V127.69l-.48.48a12.82,12.82,0,0,1,6,1.56c1.67.84,3.6,2.06,4.36,3.86C119,134.16,119.94,133.91,119.69,133.33Z"/><path class="cls-2" d="M112.61,131.31h-.08a.61.61,0,0,0,0,1.21h.08a.61.61,0,0,0,0-1.22Z"/><path class="cls-2" d="M115.73,133.69l0-.05a.42.42,0,0,0,0-.59l0-.06a.49.49,0,1,0,0,.7Z"/><path class="cls-2" d="M113.19,136.9a.38.38,0,0,0,0-.76.38.38,0,0,0,0,.76Z"/><path d="M135.51,132.41c-1.25-2.81-7-5.24-10.73-5.22h-.09s4.62,4.33,4.62,9.23a11,11,0,0,1-4.62,9.24C133.63,145.22,139,139.56,135.51,132.41Z"/><path d="M135.93,132.17c-.87-1.85-2.9-3.06-4.68-3.89a14.84,14.84,0,0,0-6.56-1.57.5.5,0,0,0-.35.83,14.92,14.92,0,0,1,4.19,6.72,10.6,10.6,0,0,1-2.55,9.66,7.44,7.44,0,0,1-1.54,1.33.49.49,0,0,0,.25.9c5.37-.29,12.18-2.94,12.36-9.25a10.39,10.39,0,0,0-1.12-4.73c-.27-.56-1.1-.07-.84.49a8.05,8.05,0,0,1,.3,7.05,9.58,9.58,0,0,1-5.56,4.5,18.41,18.41,0,0,1-5.14,1l.24.9a10.65,10.65,0,0,0,4-5,11.62,11.62,0,0,0,.8-6,13.23,13.23,0,0,0-2.36-5.53,17.37,17.37,0,0,0-2.3-2.76l-.34.83a13.68,13.68,0,0,1,6.07,1.44c1.65.76,3.53,1.83,4.33,3.54C135.36,133.22,136.19,132.73,135.93,132.17Z"/><path class="cls-2" d="M130.67,131.08l.08.13c.29.49.95-.18.47-.46l-.13-.08a.31.31,0,0,0-.42.41Z"/><path class="cls-2" d="M133.13,134.26a.27.27,0,0,0,0-.53.27.27,0,0,0,0,.53Z"/><path d="M61.28,133.46c1.25-3.11,7-5.8,10.73-5.77h.09v20.44C63.15,147.63,57.83,141.38,61.28,133.46Z"/><path d="M61.75,133.59c.75-1.8,2.69-3,4.35-3.86a12.89,12.89,0,0,1,6-1.56l-.48-.48v20.44l.48-.48A14.29,14.29,0,0,1,64,144.84a8.55,8.55,0,0,1-3.24-6.39,11.2,11.2,0,0,1,1-4.74c.24-.57-.59-1.06-.84-.49a11,11,0,0,0-.4,8.6,10.8,10.8,0,0,0,6.07,5.61,17.73,17.73,0,0,0,5.57,1.19.5.5,0,0,0,.48-.49V127.69a.49.49,0,0,0-.48-.48A13.82,13.82,0,0,0,65.46,129a9.56,9.56,0,0,0-4.65,4.35C60.57,133.91,61.51,134.16,61.75,133.59Z"/><path class="cls-2" d="M65.54,132.78a.76.76,0,0,0,0-1.51.76.76,0,0,0,0,1.51Z"/><path class="cls-2" d="M68.07,131.36l.05.06a.54.54,0,0,0,.75,0l0-.06a.6.6,0,1,0-.85,0Z"/><path class="cls-2" d="M63.24,135.94a.3.3,0,0,0,0-.6.3.3,0,1,0,0,.6Z"/><path class="cls-2" d="M68.05,135.55a.46.46,0,0,0,0-.91.46.46,0,0,0,0,.91Z"/><path d="M45,132.41c1.25-2.81,7-5.24,10.73-5.22h.09s-4.63,4.33-4.63,9.23a11,11,0,0,0,4.63,9.24C46.87,145.22,41.54,139.56,45,132.41Z"/><path d="M45.41,132.66c.8-1.71,2.69-2.78,4.34-3.54a13.65,13.65,0,0,1,6.07-1.44l-.34-.83a15.69,15.69,0,0,0-4.52,7.5,11.61,11.61,0,0,0,2.81,10.18,8.63,8.63,0,0,0,1.8,1.56l.25-.9c-4.79-.27-11.18-2.53-11.39-8.23a9.31,9.31,0,0,1,1-4.3c.27-.56-.56-1-.83-.49a9.17,9.17,0,0,0-.39,7.85,10.44,10.44,0,0,0,6,5,19,19,0,0,0,5.63,1.09.49.49,0,0,0,.24-.9,9.77,9.77,0,0,1-3.5-4.34A10.57,10.57,0,0,1,51.8,135,13,13,0,0,1,54.1,130a16.45,16.45,0,0,1,2.06-2.43.49.49,0,0,0-.34-.83,14.84,14.84,0,0,0-6.56,1.57c-1.79.82-3.82,2-4.68,3.89C44.32,132.73,45.15,133.22,45.41,132.66Z"/><path class="cls-2" d="M48.59,130.6a1,1,0,0,0,0,.1.38.38,0,0,0,.73,0l0-.1c.24-.66-1-.66-.81,0Z"/><path class="cls-2" d="M46.8,133.32a.31.31,0,0,0,0-.61.31.31,0,0,0,0,.61Z"/><path class="cls-2" d="M49.32,133.72a.38.38,0,0,0,0-.76.38.38,0,0,0,0,.76Z"/><path class="cls-1" d="M158,99.33c0,5.89-30.8,10.67-68.79,10.67s-68.78-4.78-68.78-10.67S51.2,88.65,89.19,88.65,158,93.43,158,99.33Z"/><path d="M149.79,104.38c-12.13-3-33.78-5-58.48-5-26.2,0-49,2.27-60.59,5.62,12.13,3,33.78,5,58.47,5C115.4,110,138.18,107.72,149.79,104.38Z"/><path d="M128.4,117.07c-14.54,1.19-29.21,1.88-43.79,2.16a263.54,263.54,0,0,1-37-1.86c-9.23-1.12-19-3.31-26.42-9.05.19,1.33.42,2.73.68,4.21,6.27,4,13.74,6,21.12,7.24,12.72,2.12,25.88,2.63,38.74,2.55,16-.1,32.19-1,48.16-2.32,8.11-.67,17.62-1.19,26-3.75.23-1.17.44-2.31.64-3.41C147.62,115.93,137.09,116.35,128.4,117.07Z"/><path d="M99.73,58.56c7-16.05-12.83-22.24-16.66-35-.13-.43-.83-.49-.85,0-.32,8.76,7.22,12.54,9,20.45,1.21,5.38-3.75,14.22-5.44,19.28-2.28,6.78-6.24,22,4.12,24.25.39.08.59-.44.37-.71C83.63,78.9,96.37,66.24,99.73,58.56Z"/><path d="M97.21,23.6a.59.59,0,0,0-1.07-.4c-4.65,7.74-.19,14.33,4.7,20.68,3.75,4.87,7.63,9,5.51,15.66-1.7,5.34-6.68,9.27-9.43,14a.38.38,0,0,0,.62.43c6.4-7.17,18.42-11.07,16.12-22.89C111.53,40.17,94.7,35.51,97.21,23.6Z"/><path d="M81.53,60.88a18.35,18.35,0,0,0,6-9.92,9.76,9.76,0,0,0-.5-6.26c-1.16-3-4.31-4.12-5.95-6.67-.38-.58-1.2-.05-1.13.53a32.55,32.55,0,0,0,2.74,9.72c1.67,3.73.51,8.89-1.59,12.24A.27.27,0,0,0,81.53,60.88Z"/><path d="M74.39,87.46A3.16,3.16,0,1,0,78,90,3.18,3.18,0,0,0,74.39,87.46Z"/><path d="M66.19,77.92a3,3,0,1,0,3.48,2.45A3,3,0,0,0,66.19,77.92Z"/><path d="M71.73,68.94a1.34,1.34,0,0,0-.46-2.64A1.34,1.34,0,0,0,71.73,68.94Z"/><path d="M76.41,77.41h-.14a2.73,2.73,0,0,0-2.9,2.39.69.69,0,0,0,0,.13c-.38,2,2,3.42,3.69,2.59a2.62,2.62,0,0,0,1.22-1.06,2.67,2.67,0,0,0,.22-2.58A2.55,2.55,0,0,0,76.41,77.41Z"/><path d="M100,88.57c-4.7.82-3.44,8.11,1.27,7.29S104.72,87.75,100,88.57Z"/><path d="M101.69,78.94a3.37,3.37,0,1,0,3.89,2.74A3.4,3.4,0,0,0,101.69,78.94Z"/><path d="M110.08,69.63h0c-2.59.45-1.89,4.46.7,4h0C113.37,73.19,112.67,69.18,110.08,69.63Z"/><path d="M108.62,32.83l-.13,0a1.37,1.37,0,0,0-1.09,1.55,1.45,1.45,0,0,0,.37.88,1.49,1.49,0,0,0,2.49-.43.08.08,0,0,1,0,0A1.5,1.5,0,0,0,108.62,32.83Z"/><path d="M75.81,37.49a1.36,1.36,0,0,0-1.34,1.91l0,.06a1.37,1.37,0,0,0,2.13.46l.09-.08a1.31,1.31,0,0,0-.09-2A1.62,1.62,0,0,0,75.81,37.49Z"/><path class="cls-1" d="M211.14,111.75c.9-.71,2.53-27.79,1.73-28.6s-31.25.22-32.38.91-6.31,9-6.44,11.1,4,11,5.06,11.79S210.25,112.47,211.14,111.75ZM181.71,98.26a3.4,3.4,0,1,1,3.59-3.19A3.4,3.4,0,0,1,181.71,98.26Z"/><path d="M207.39,97.57a.61.61,0,0,0,0-.83c-2.22-3.45-8.7-11.73-13.79-9.15a4.79,4.79,0,0,0-2.76,4.63c.18,2,1.33,3,2.74,4.12-1.57.89-3.24,2-3.26,4s.47,4,2.39,4.81C198.11,107.3,204.31,101.28,207.39,97.57ZM192,99.85c.67-1.45,2.08-2,3.36-2.74a.78.78,0,0,0,.08-1.32c-1.7-1.25-4.55-3.16-2.49-5.74,1.78-2.21,4.51-1,6.31.25a24.17,24.17,0,0,1,6.58,6.79c-2.36,2.78-5.46,5.66-9,6.59C194.52,104.27,190.35,103.33,192,99.85Z"/><path d="M180,93.59a7.65,7.65,0,0,1-5.1.92,27.28,27.28,0,0,1-6-1.49c-1.89-.64-3.73-1.39-5.6-2a49.2,49.2,0,0,0-22.69-2.21,29.16,29.16,0,0,0-6.77,1.67,12,12,0,0,0-4.76,3,14.17,14.17,0,0,0-2.91,5.43c-.53,1.94-.55,4.2,1,5.69.89.87,2.26-.5,1.37-1.37-1.1-1.06-.81-2.77-.41-4.09a12.16,12.16,0,0,1,2.36-4.34,10.54,10.54,0,0,1,4.39-2.66,30.25,30.25,0,0,1,6.37-1.49,46,46,0,0,1,14.9.45,46.81,46.81,0,0,1,6.78,1.83c1.83.65,3.63,1.37,5.46,2,3.83,1.31,8.93,2.83,12.63.38,1-.68.06-2.36-1-1.67Z"/><path d="M39.74,61.19A29.25,29.25,0,0,0,35.53,61,34.28,34.28,0,0,0,39.35,59c.28-.17.11-.65-.2-.57a29.61,29.61,0,0,0-4.4,1.42,26.22,26.22,0,0,0,3.36-3.3c.2-.25,0-.69-.33-.5a23.93,23.93,0,0,0-3.68,3,42.17,42.17,0,0,0,2.14-4.45c.11-.28-.28-.55-.47-.32a37.17,37.17,0,0,0-2.54,3.78,42.72,42.72,0,0,0,.64-4.58.28.28,0,0,0-.55-.1c-.38,1-.7,2.1-1,3.2-.13.5-.25,1-.36,1.52-.09-.5-.17-1-.27-1.49-.22-1.11-.49-2.19-.8-3.24a.28.28,0,0,0-.56.06,40,40,0,0,0,.38,4.6,36.67,36.67,0,0,0-2.33-3.91c-.16-.24-.58,0-.48.29A41.57,41.57,0,0,0,29.8,59a23.43,23.43,0,0,0-3.51-3.21c-.28-.2-.54.21-.35.48a26.64,26.64,0,0,0,3.16,3.49,31.43,31.43,0,0,0-4.31-1.68.31.31,0,0,0-.23.56,33.83,33.83,0,0,0,3.7,2.17,29.79,29.79,0,0,0-4.22,0c-.3,0-.42.52-.09.61a35.77,35.77,0,0,0,4.2.76,30.48,30.48,0,0,0-4.09,1.46c-.26.11-.15.61.13.58a32.82,32.82,0,0,0,4.2-.76A33.29,33.29,0,0,0,25,66.24a.3.3,0,0,0,.33.49A33.8,33.8,0,0,0,29,64.58a36.61,36.61,0,0,0-2.39,3.81c-.16.31.2.63.44.39a36.29,36.29,0,0,0,2.88-3.36,38.32,38.32,0,0,0-1.12,4.43c-.06.33.35.59.51.26a43.33,43.33,0,0,0,1.76-4.24,37.89,37.89,0,0,0,.24,4.68.28.28,0,0,0,.55,0c.19-1.27.31-2.57.38-3.88,0-.34,0-.68,0-1l.12.2a41.65,41.65,0,0,0,1.51,4.33c.15.34.57.1.53-.22a39.92,39.92,0,0,0-.87-4.49A36.6,36.6,0,0,0,36.27,69c.23.25.61,0,.46-.36a36.22,36.22,0,0,0-2.16-4,33.35,33.35,0,0,0,3.57,2.36.3.3,0,0,0,.36-.47,34.37,34.37,0,0,0-3.25-3,32.92,32.92,0,0,0,4.15,1c.28,0,.41-.44.16-.57a30.41,30.41,0,0,0-4-1.7,34.58,34.58,0,0,0,4.24-.51C40.13,61.73,40,61.22,39.74,61.19Z"/><path d="M58.15,44.43A10.26,10.26,0,0,0,54,43.81a45.92,45.92,0,0,0-.67-7,.27.27,0,0,0-.52,0,22.78,22.78,0,0,0-.6,7.15c-1.35.17-2.71.43-4.08.6a.21.21,0,0,0,0,.41,26.69,26.69,0,0,0,4.2.59c.2,2.33.52,4.66.67,7a.21.21,0,0,0,.42,0,51.77,51.77,0,0,0,.59-7A16.78,16.78,0,0,0,58.14,45,.27.27,0,0,0,58.15,44.43Z"/><path d="M17.67,52.47A13.66,13.66,0,0,0,13.49,52a26.85,26.85,0,0,0-.71-5.21c0-.2-.46-.2-.53,0a12.74,12.74,0,0,0-.55,5.32c-1.35.12-2.71.31-4.08.43a.15.15,0,1,0,0,.3,36.14,36.14,0,0,0,4.21.47c.21,1.74.55,3.48.71,5.22,0,.21.39.21.43,0a28.79,28.79,0,0,0,.54-5.21,21.94,21.94,0,0,0,4.16-.44C17.92,52.8,17.92,52.54,17.67,52.47Z"/><path d="M12.91,64a13.31,13.31,0,0,0-5.28-.78,57.47,57.47,0,0,0-.84-8.83.34.34,0,0,0-.66,0,28.54,28.54,0,0,0-.76,9c-1.71.22-3.43.55-5.17.76a.27.27,0,0,0,0,.52,32.87,32.87,0,0,0,5.32.74c.25,3,.66,5.9.84,8.86a.27.27,0,0,0,.54,0,66.16,66.16,0,0,0,.74-8.84,20.9,20.9,0,0,0,5.26-.8A.34.34,0,0,0,12.91,64Z"/><path d="M12,80.19a1.94,1.94,0,1,0-1.88-2,1.95,1.95,0,0,0,1.88,2Z"/><path d="M39.09,34.44a1.94,1.94,0,1,0-1.89-2,2,2,0,0,0,1.89,2Z"/><path d="M41.82,48.82a1.55,1.55,0,0,0,.08-3.09,1.55,1.55,0,0,0-.08,3.09Z"/><path d="M170.46,184.68a20.37,20.37,0,0,0-8.16-1.21A89.19,89.19,0,0,0,161,169.81a.53.53,0,0,0-1,0,44.17,44.17,0,0,0-1.17,14c-2.65.33-5.31.85-8,1.19a.42.42,0,0,0,0,.8A55.2,55.2,0,0,0,159,186.9c.39,4.55,1,9.11,1.31,13.69a.42.42,0,0,0,.83,0,103.88,103.88,0,0,0,1.15-13.67,32.6,32.6,0,0,0,8.14-1.24A.53.53,0,0,0,170.46,184.68Z"/><path d="M175.62,174.61a14.06,14.06,0,0,0-4.34-.52,28.3,28.3,0,0,0-.74-5.59c0-.22-.47-.22-.54,0a14,14,0,0,0-.58,5.72c-1.41.13-2.82.33-4.25.46a.17.17,0,0,0,0,.33,36.52,36.52,0,0,0,4.37.49c.22,1.87.58,3.74.74,5.61,0,.22.4.23.44,0a33.22,33.22,0,0,0,.57-5.59,22.07,22.07,0,0,0,4.32-.48C175.89,175,175.88,174.69,175.62,174.61Z"/><path d="M180,168.58a2.89,2.89,0,1,0-2.82-3,2.91,2.91,0,0,0,2.82,3Z"/><path d="M21.91,185.07a26.68,26.68,0,0,1,3.76,1.6,34.31,34.31,0,0,1-2.5-3.32c-.18-.27.17-.61.41-.41a29.46,29.46,0,0,1,3.24,3.1,25.35,25.35,0,0,1-1.53-4.3c-.08-.31.31-.58.49-.29a23.34,23.34,0,0,1,1.95,4.16,38.1,38.1,0,0,1,0-4.78c0-.29.48-.36.54-.08a35.75,35.75,0,0,1,.62,4.36,42.15,42.15,0,0,1,1.37-4.25.28.28,0,0,1,.53.14c-.11,1.06-.28,2.13-.49,3.21-.1.49-.21,1-.33,1.48.29-.4.57-.8.87-1.18a31.94,31.94,0,0,1,2.07-2.5.27.27,0,0,1,.46.29,42,42,0,0,1-2.28,3.86,35.37,35.37,0,0,1,3.68-2.43c.25-.14.51.24.3.45a40.37,40.37,0,0,1-3.57,3.19,22.88,22.88,0,0,1,4.41-1.32c.33-.05.38.42.11.57a24.86,24.86,0,0,1-4.24,1.7,31,31,0,0,1,4.47.37.3.3,0,0,1,0,.58,33.5,33.5,0,0,1-4.15.33,28.53,28.53,0,0,1,3.7,1.75c.25.14.14.63-.18.57a34.28,34.28,0,0,1-4-1.12,29.88,29.88,0,0,1,2.95,3c.17.21-.13.59-.36.45a32.08,32.08,0,0,1-3.35-2.44,30.21,30.21,0,0,1,1.79,3.89.29.29,0,0,1-.49.29,32.31,32.31,0,0,1-2.32-3.44,36.18,36.18,0,0,1,.47,4.34c0,.33-.44.46-.55.15a38.19,38.19,0,0,1-1.09-4.15,37.45,37.45,0,0,1-.89,4.34c-.09.31-.55.36-.56,0a41.92,41.92,0,0,1,.26-4.44,36.81,36.81,0,0,1-2.19,4,.27.27,0,0,1-.48-.21A37.06,37.06,0,0,1,26.12,193l.39-.91-.18.13a42.23,42.23,0,0,1-3.15,3.13c-.27.24-.54-.15-.37-.41a35.29,35.29,0,0,1,2.66-3.55,35.22,35.22,0,0,1-3.83,1.93c-.31.14-.51-.29-.25-.5a35,35,0,0,1,3.55-2.53,34.59,34.59,0,0,1-4.11.55.29.29,0,0,1-.11-.56,33,33,0,0,1,4.1-1.25,32.9,32.9,0,0,1-4-.88c-.26-.08-.17-.56.1-.57a31.34,31.34,0,0,1,4.2.21,32.58,32.58,0,0,1-3.47-2.23C21.34,185.38,21.64,185,21.91,185.07Z"/><path d="M5.14,189.12a1.13,1.13,0,0,1-.56-1.49,1.13,1.13,0,1,1,.56,1.49Z"/><path d="M5.83,179.39a2.11,2.11,0,1,1,2.8-1,2.12,2.12,0,0,1-2.8,1Z"/><path d="M19.28,215.54a3.28,3.28,0,1,1,4.34-1.63,3.32,3.32,0,0,1-4.34,1.63Z"/><path d="M150.87,62.53a28.57,28.57,0,0,0-3.84-.18,33.45,33.45,0,0,0,3.48-1.78c.26-.16.11-.59-.18-.52a27.87,27.87,0,0,0-4,1.29,23.54,23.54,0,0,0,3.06-3c.18-.23,0-.62-.3-.45a22.57,22.57,0,0,0-3.36,2.73,39.62,39.62,0,0,0,2-4c.1-.26-.26-.51-.43-.29a31.73,31.73,0,0,0-2.31,3.44,40.55,40.55,0,0,0,.58-4.17.26.26,0,0,0-.51-.09,29.81,29.81,0,0,0-.89,2.91c-.12.46-.23.92-.34,1.39-.07-.46-.16-.91-.24-1.36-.21-1-.45-2-.73-3a.26.26,0,0,0-.51.06,37.52,37.52,0,0,0,.34,4.2,32,32,0,0,0-2.12-3.57c-.15-.22-.53,0-.44.26a39.37,39.37,0,0,0,1.72,4.17,22.43,22.43,0,0,0-3.19-2.93c-.27-.18-.5.2-.33.44a23.39,23.39,0,0,0,2.89,3.18,29,29,0,0,0-3.93-1.53.28.28,0,0,0-.22.51,31.46,31.46,0,0,0,3.38,2,26.08,26.08,0,0,0-3.85,0c-.27,0-.38.47-.08.55a31.93,31.93,0,0,0,3.83.69,28.4,28.4,0,0,0-3.73,1.33c-.24.11-.14.56.12.53a28.82,28.82,0,0,0,3.83-.69,31.13,31.13,0,0,0-3.11,2.56.27.27,0,0,0,.3.45,31.29,31.29,0,0,0,3.37-2,31.89,31.89,0,0,0-2.17,3.48c-.15.28.18.57.4.35a35.75,35.75,0,0,0,2.63-3.06,33.25,33.25,0,0,0-1,4c-.06.29.32.53.47.23a39,39,0,0,0,1.6-3.86,35,35,0,0,0,.22,4.26.26.26,0,0,0,.5,0c.18-1.16.28-2.35.35-3.55,0-.31,0-.61,0-.92l.1.18a37.33,37.33,0,0,0,1.38,3.94c.13.32.52.1.48-.2a35.49,35.49,0,0,0-.79-4.09,34.35,34.35,0,0,0,2.45,3.21c.2.23.55,0,.42-.33a33.48,33.48,0,0,0-2-3.6,34.67,34.67,0,0,0,3.26,2.16.28.28,0,0,0,.33-.44,29.76,29.76,0,0,0-3-2.73,30.66,30.66,0,0,0,3.79.91c.25,0,.38-.4.15-.52a28.16,28.16,0,0,0-3.65-1.55,30.6,30.6,0,0,0,3.86-.47C151.23,63,151.14,62.57,150.87,62.53Z"/><path d="M165.55,22.27a1.55,1.55,0,1,0,.08-3.09,1.55,1.55,0,0,0-.08,3.09Z"/><path d="M150,41.42a2.89,2.89,0,1,0-2.81-3,2.91,2.91,0,0,0,2.81,3Z"/><path d="M129.37,38A5.55,5.55,0,1,0,124,32.31,5.6,5.6,0,0,0,129.37,38Z"/><path d="M169.84,43.52a11.14,11.14,0,0,0-4.45-.66,48.15,48.15,0,0,0-.71-7.44.29.29,0,0,0-.55,0,23.64,23.64,0,0,0-.64,7.61c-1.45.18-2.89.46-4.36.64a.23.23,0,0,0,0,.44,30.55,30.55,0,0,0,4.48.63c.21,2.48.56,5,.71,7.45a.23.23,0,0,0,.46,0,58.65,58.65,0,0,0,.63-7.44,18.43,18.43,0,0,0,4.42-.67A.29.29,0,0,0,169.84,43.52Z"/><path d="M155.43,11.78a15.71,15.71,0,0,0-6.3-.93,68.72,68.72,0,0,0-1-10.55.41.41,0,0,0-.79,0,34.36,34.36,0,0,0-.91,10.8c-2,.25-4.09.65-6.16.91a.32.32,0,0,0,0,.62,40.21,40.21,0,0,0,6.35.88c.3,3.52.79,7,1,10.57a.32.32,0,0,0,.64,0,78.62,78.62,0,0,0,.89-10.55,25.66,25.66,0,0,0,6.29-1A.41.41,0,0,0,155.43,11.78Z"/></g></g></svg>